<?xml version="1.0" encoding="utf-8"?>
<!-- Generator: Adobe Illustrator 24.3.0, SVG Export Plug-In . SVG Version: 6.00 Build 0)  -->
<svg version="1.1" id="Layer_1" xmlns="http://www.w3.org/2000/svg" xmlns:xlink="http://www.w3.org/1999/xlink" x="0px" y="0px"
	 viewBox="0 0 1050 450" style="enable-background:new 0 0 1050 450;" xml:space="preserve">
<style type="text/css">
	.st0{fill:url(#SVGID_1_);}
	.st1{opacity:0.55;fill:#9881B7;enable-background:new    ;}
	.st2{fill:#FFFFFF;}
	.st3{fill:#292C3D;}
	.st4{fill:#0254E4;}
	.st5{opacity:0.65;fill:#00A1CC;enable-background:new    ;}
	.st6{fill:#F9A57E;}
	.st7{fill:#E76F59;}
	.st8{fill:#E8A393;}
	.st9{fill:#4D505E;}
	.st10{fill:#3D3848;}
	.st11{opacity:0.32;fill:#CA0045;enable-background:new    ;}
	.st12{fill:#DA395B;}
	.st13{fill:#FF4C6B;}
	.st14{fill:#D8D8D8;}
	.st15{fill:#AFEAF0;}
	.st16{fill:#7695A8;}
	.st17{fill:#5AC4E0;}
	.st18{fill:#FFB089;}
	.st19{opacity:0.55;fill:#ABACB3;enable-background:new    ;}
	.st20{fill:#3F6A85;}
	.st21{fill:#5B5D6A;}
	.st22{fill:#273137;}
	.st23{fill:#F8F2ED;}
	.st24{fill:#48525B;}
	.st25{fill:#B6B6B6;}
	.st26{fill:#FFF9FD;}
	.st27{fill:#8494AB;}
	.st28{fill:#B3B2DA;}
	.st29{fill:none;}
	.st30{font-family:'OCRAExtended';}
	.st31{font-size:40px;}
</style>
<linearGradient id="SVGID_1_" gradientUnits="userSpaceOnUse" x1="525" y1="511.1156" x2="525" y2="1046.692" gradientTransform="matrix(1 0 0 1 0 -784)">
	<stop  offset="0" style="stop-color:#00C9FF"/>
	<stop  offset="1" style="stop-color:#D190E2"/>
</linearGradient>
<rect y="0" class="st0" width="1050" height="450"/>
<ellipse class="st1" cx="525" cy="320.4" rx="467.8" ry="16.7"/>
<g>
	<g>
		<path class="st2" d="M248.2,161.5h-1v-4h1V161.5z M248.2,153.5h-1v-4h1V153.5z M248.2,145.5h-1v-4h1V145.5z M248.2,137.5h-1v-4h1
			V137.5z M248.2,129.5h-1v-4h1V129.5z M248.2,121.5h-1v-4h1V121.5z M248.2,113.5h-1v-4h1V113.5z M248.2,105.5h-1v-4h1V105.5z
			 M248.2,97.5h-1v-4h1V97.5z M248.2,89.5h-1v-4h1V89.5z M248.2,81.5h-1v-4h1V81.5z M292.2,74.4h-4v-1h4V74.4z M284.2,74.4h-4v-1h4
			V74.4z M276.2,74.4h-4v-1h4V74.4z M268.2,74.4h-4v-1h4V74.4z M260.2,74.4h-4v-1h4V74.4z M252.2,74.4h-4v-1h4V74.4z"/>
	</g>
	<g>
		<circle class="st2" cx="247.7" cy="161.4" r="1.9"/>
		<path class="st2" d="M249.8,161.4c0-1.2-1-2.1-2.1-2.1s-2.1,1-2.1,2.1s1,2.1,2.1,2.1S249.8,162.5,249.8,161.4
			S249.8,162.5,249.8,161.4z M246.1,161.4c0-0.9,0.7-1.6,1.6-1.6c0.9,0,1.6,0.7,1.6,1.6c0,0.9-0.7,1.6-1.6,1.6
			S246.1,162.3,246.1,161.4S246.1,162.3,246.1,161.4z"/>
	</g>
	<g>
		<path class="st2" d="M295.6,75.8c1,0,1.9-0.8,1.9-1.9s-0.8-1.9-1.9-1.9s-1.9,0.8-1.9,1.9C293.8,75,294.6,75.8,295.6,75.8z"/>
		<path class="st2" d="M295.6,76.1c-1.2,0-2.1-1-2.1-2.1s1-2.1,2.1-2.1s2.1,1,2.1,2.1S296.8,76.1,295.6,76.1
			C294.5,76.1,296.8,76.1,295.6,76.1z M295.6,72.3c-0.9,0-1.6,0.7-1.6,1.6s0.7,1.6,1.6,1.6s1.6-0.7,1.6-1.6S296.5,72.3,295.6,72.3
			S296.5,72.3,295.6,72.3z"/>
	</g>
</g>
<g>
	<g>
		<path class="st2" d="M483.1,161.5h-1v-3.8h1V161.5z M483.1,153.7h-1v-4h1V153.7z M483.1,145.7h-1v-4h1V145.7z M483.1,137.7h-1v-4
			h1V137.7z M483.1,129.7h-1v-4h1V129.7z M483.1,121.7h-1v-4h1V121.7z M483.1,113.7h-1v-4h1V113.7z M483.1,105.7h-1v-4h1V105.7z
			 M483.1,97.7h-1v-4h1V97.7z M483.1,89.7h-1v-4h1V89.7z M481,83.8h-4v-1h4V83.8z M473,83.8h-4v-1h4V83.8z M465,83.8h-4v-1h4V83.8z"
			/>
	</g>
	<g>
		<path class="st2" d="M461.1,85.2c-1,0-1.9-0.8-1.9-1.9s0.8-1.9,1.9-1.9s1.9,0.8,1.9,1.9S462.1,85.2,461.1,85.2z"/>
		<path class="st2" d="M461.1,85.5c1.2,0,2.1-1,2.1-2.1s-1-2.1-2.1-2.1s-2.1,1-2.1,2.1S459.9,85.5,461.1,85.5
			C462.3,85.5,459.9,85.5,461.1,85.5z M461.1,81.7c0.9,0,1.6,0.7,1.6,1.6s-0.7,1.6-1.6,1.6s-1.6-0.7-1.6-1.6
			C459.5,82.4,460.2,81.7,461.1,81.7S460.2,81.7,461.1,81.7z"/>
	</g>
	<g>
		<path class="st2" d="M480.8,161.4c0,1,0.8,1.9,1.9,1.9s1.9-0.8,1.9-1.9s-0.8-1.9-1.9-1.9C481.6,159.5,480.8,160.3,480.8,161.4z"/>
		<path class="st2" d="M480.5,161.4c0-1.2,1-2.1,2.1-2.1s2.1,1,2.1,2.1s-1,2.1-2.1,2.1S480.5,162.6,480.5,161.4
			S480.5,162.6,480.5,161.4z M484.3,161.4c0-0.9-0.7-1.6-1.6-1.6s-1.6,0.7-1.6,1.6c0,0.9,0.7,1.6,1.6,1.6
			C483.5,163,484.3,162.3,484.3,161.4C484.3,160.5,484.3,162.3,484.3,161.4z"/>
	</g>
</g>
<g>
	<g>
		<path class="st2" d="M827.4,144.2h-1v-4h1V144.2z M827.4,136.2h-1v-4h1V136.2z M827.4,128.2h-1v-4h1V128.2z M827.4,120.2h-1v-4h1
			V120.2z M827.4,112.2h-1v-4h1V112.2z M827.4,104.2h-1v-4h1V104.2z"/>
	</g>
	<g>
		<path class="st2" d="M828.8,144.1c0,1-0.8,1.9-1.9,1.9s-1.9-0.8-1.9-1.9s0.8-1.9,1.9-1.9C827.9,142.2,828.8,143.1,828.8,144.1z"/>
		<path class="st2" d="M829,144.1c0-1.2-1-2.1-2.1-2.1s-2.1,1-2.1,2.1s1,2.1,2.1,2.1S829,145.3,829,144.1S829,145.3,829,144.1z
			 M825.2,144.1c0-0.9,0.7-1.6,1.6-1.6s1.6,0.7,1.6,1.6s-0.7,1.6-1.6,1.6S825.2,145,825.2,144.1S825.2,145,825.2,144.1z"/>
	</g>
	<g>
		<path class="st2" d="M828.8,100.2c0-1-0.8-1.9-1.9-1.9s-1.9,0.8-1.9,1.9s0.8,1.9,1.9,1.9C827.9,102.1,828.8,101.2,828.8,100.2z"/>
		<path class="st2" d="M829,100.2c0,1.2-1,2.1-2.1,2.1s-2.1-1-2.1-2.1s1-2.1,2.1-2.1S829,99,829,100.2C829,101.4,829,99,829,100.2z
			 M825.2,100.2c0,0.9,0.7,1.6,1.6,1.6s1.6-0.7,1.6-1.6s-0.7-1.6-1.6-1.6S825.2,99.3,825.2,100.2
			C825.2,101.1,825.2,99.3,825.2,100.2z"/>
	</g>
</g>
<g>
	<g>
		<path class="st2" d="M603.4,148.8h-1v-2.4h1V148.8z M603.4,142.4h-1v-4h1V142.4z M603.4,134.4h-1v-4h1V134.4z M603.4,126.4h-1v-4
			h1V126.4z M603.4,118.4h-1v-4h1V118.4z M603.4,110.4h-1v-4h1V110.4z M603.4,102.4h-1v-4h1V102.4z M603.4,94.4h-1v-4h1V94.4z
			 M726.7,86.7h-4v-1h4V86.7z M718.7,86.7h-4v-1h4V86.7z M710.7,86.7h-4v-1h4V86.7z M702.7,86.7h-4v-1h4V86.7z M694.7,86.7h-4v-1h4
			V86.7z M686.7,86.7h-4v-1h4V86.7z M678.7,86.7h-4v-1h4V86.7z M670.7,86.7h-4v-1h4V86.7z M662.7,86.7h-4v-1h4V86.7z M654.7,86.7h-4
			v-1h4V86.7z M646.7,86.7h-4v-1h4V86.7z M638.7,86.7h-4v-1h4V86.7z M630.7,86.7h-4v-1h4V86.7z M622.7,86.7h-4v-1h4V86.7z
			 M614.7,86.7h-4v-1h4V86.7z M606.7,86.7h-3.8v-0.3h-0.5v-0.7h4.3V86.7z"/>
	</g>
	<g>
		<path class="st2" d="M726.6,84.3c1,0,1.9,0.8,1.9,1.9s-0.8,1.9-1.9,1.9s-1.9-0.8-1.9-1.9C724.7,85.2,725.6,84.3,726.6,84.3z"/>
		<path class="st2" d="M726.6,84.1c-1.2,0-2.1,1-2.1,2.1s1,2.1,2.1,2.1s2.1-1,2.1-2.1C728.7,85,727.8,84.1,726.6,84.1
			C725.4,84.1,727.8,84.1,726.6,84.1z M726.6,87.8c-0.9,0-1.6-0.7-1.6-1.6s0.7-1.6,1.6-1.6s1.6,0.7,1.6,1.6
			C728.2,87.1,727.5,87.8,726.6,87.8C725.7,87.8,727.5,87.8,726.6,87.8z"/>
	</g>
	<g>
		<circle class="st2" cx="602.9" cy="148.7" r="1.9"/>
		<path class="st2" d="M600.8,148.7c0-1.2,1-2.1,2.1-2.1s2.1,1,2.1,2.1s-1,2.1-2.1,2.1S600.8,149.9,600.8,148.7
			S600.8,149.9,600.8,148.7z M604.6,148.7c0-0.9-0.7-1.6-1.6-1.6s-1.6,0.7-1.6,1.6s0.7,1.6,1.6,1.6S604.6,149.6,604.6,148.7
			S604.6,149.6,604.6,148.7z"/>
	</g>
</g>
<g>
	<g>
		<path class="st2" d="M675.4,390.5h-4v-1h4V390.5z M667.4,390.5h-4v-1h4V390.5z M659.4,390.5h-4v-1h4V390.5z M651.4,390.5h-4v-1h4
			V390.5z M643.4,390.5h-4v-1h4V390.5z M635.4,390.5h-4v-1h4V390.5z M627.4,390.5h-4v-1h4V390.5z M619.4,390.5h-4v-1h4V390.5z
			 M614.5,387.5h-1v-4h1V387.5z M614.5,379.5h-1v-4h1V379.5z M614.5,371.5h-1v-4h1V371.5z M614.5,363.5h-1v-4h1V363.5z"/>
	</g>
	<g>
		<path class="st2" d="M612.1,359.6c0-1,0.8-1.9,1.9-1.9s1.9,0.8,1.9,1.9s-0.8,1.9-1.9,1.9S612.1,360.6,612.1,359.6z"/>
		<path class="st2" d="M611.8,359.6c0,1.2,1,2.1,2.1,2.1s2.1-1,2.1-2.1s-1-2.1-2.1-2.1S611.8,358.4,611.8,359.6
			C611.8,360.8,611.8,358.4,611.8,359.6z M615.6,359.6c0,0.9-0.7,1.6-1.6,1.6s-1.6-0.7-1.6-1.6s0.7-1.6,1.6-1.6
			C614.9,358,615.6,358.7,615.6,359.6S615.6,358.7,615.6,359.6z"/>
	</g>
	<g>
		<path class="st2" d="M676.6,391.9c1,0,1.9-0.8,1.9-1.9s-0.8-1.9-1.9-1.9s-1.9,0.8-1.9,1.9C674.8,391.1,675.6,391.9,676.6,391.9z"
			/>
		<path class="st2" d="M676.6,392.2c-1.2,0-2.1-1-2.1-2.1s1-2.1,2.1-2.1s2.1,1,2.1,2.1S677.8,392.2,676.6,392.2
			C675.5,392.2,677.8,392.2,676.6,392.2z M676.6,388.4c-0.9,0-1.6,0.7-1.6,1.6s0.7,1.6,1.6,1.6s1.6-0.7,1.6-1.6
			C678.3,389.1,677.5,388.4,676.6,388.4C675.7,388.4,677.5,388.4,676.6,388.4z"/>
	</g>
</g>
<g>
	<g>
		<path class="st2" d="M909.6,374.9h-4v-1h4V374.9z M901.6,374.9h-4v-1h4V374.9z M912.8,373.1h-1v-4h1V373.1z M912.8,365.1h-1v-4h1
			V365.1z"/>
	</g>
	<g>
		<path class="st2" d="M891.8,376.3c-1,0-1.9-0.8-1.9-1.9s0.8-1.9,1.9-1.9s1.9,0.8,1.9,1.9C893.6,375.5,892.8,376.3,891.8,376.3z"/>
		<path class="st2" d="M891.8,376.6c1.2,0,2.1-1,2.1-2.1s-1-2.1-2.1-2.1s-2.1,1-2.1,2.1C889.6,375.6,890.6,376.6,891.8,376.6
			C892.9,376.6,890.6,376.6,891.8,376.6z M891.8,372.8c0.9,0,1.6,0.7,1.6,1.6s-0.7,1.6-1.6,1.6s-1.6-0.7-1.6-1.6
			S890.9,372.8,891.8,372.8S890.9,372.8,891.8,372.8z"/>
	</g>
	<g>
		<path class="st2" d="M914.1,360.3c0-1-0.8-1.9-1.9-1.9s-1.9,0.8-1.9,1.9s0.8,1.9,1.9,1.9S914.1,361.3,914.1,360.3z"/>
		<path class="st2" d="M914.4,360.3c0,1.2-1,2.1-2.1,2.1s-2.1-1-2.1-2.1s1-2.1,2.1-2.1S914.4,359.1,914.4,360.3
			C914.4,361.5,914.4,359.1,914.4,360.3z M910.6,360.3c0,0.9,0.7,1.6,1.6,1.6s1.6-0.7,1.6-1.6s-0.7-1.6-1.6-1.6
			S910.6,359.4,910.6,360.3S910.6,359.4,910.6,360.3z"/>
	</g>
</g>
<g>
	<g>
		<path class="st2" d="M152.6,374.5h-1.7v-1h1.7V374.5z M146.9,374.5h-4v-1h4V374.5z M138.9,374.5h-4v-1h4V374.5z M130.9,374.5h-4
			v-1h4V374.5z M126,371.4h-1v-4h1V371.4z M126,363.4h-1v-4h1V363.4z M126,355.4h-1v-4h1V355.4z M126,347.4h-1v-4h1V347.4z"/>
	</g>
	<g>
		<path class="st2" d="M123.7,343.5c0-1,0.8-1.9,1.9-1.9s1.9,0.8,1.9,1.9s-0.8,1.9-1.9,1.9S123.7,344.5,123.7,343.5z"/>
		<path class="st2" d="M123.4,343.5c0,1.2,1,2.1,2.1,2.1s2.1-1,2.1-2.1s-1-2.1-2.1-2.1S123.4,342.3,123.4,343.5
			C123.4,344.6,123.4,342.3,123.4,343.5z M127.2,343.5c0,0.9-0.7,1.6-1.6,1.6s-1.6-0.7-1.6-1.6s0.7-1.6,1.6-1.6
			S127.2,342.6,127.2,343.5S127.2,342.6,127.2,343.5z"/>
	</g>
	<g>
		<path class="st2" d="M152.5,375.9c1,0,1.9-0.8,1.9-1.9s-0.8-1.9-1.9-1.9c-1,0-1.9,0.8-1.9,1.9S151.4,375.9,152.5,375.9z"/>
		<path class="st2" d="M152.5,376.1c-1.2,0-2.1-1-2.1-2.1s1-2.1,2.1-2.1s2.1,1,2.1,2.1C154.6,375.2,153.6,376.1,152.5,376.1
			S153.6,376.1,152.5,376.1z M152.5,372.4c-0.9,0-1.6,0.7-1.6,1.6s0.7,1.6,1.6,1.6c0.9,0,1.6-0.7,1.6-1.6S153.4,372.4,152.5,372.4
			S153.4,372.4,152.5,372.4z"/>
	</g>
</g>
<g>
	<g>
		<path class="st2" d="M318.3,378.5h-2.6v-1h1.6v-1.4h1V378.5z M311.7,378.5h-4v-1h4V378.5z M303.7,378.5h-4v-1h4V378.5z
			 M295.7,378.5h-4v-1h4V378.5z M287.7,378.5h-4v-1h4V378.5z M279.7,378.5h-4v-1h4V378.5z M271.7,378.5h-4v-1h4V378.5z M318.3,372.1
			h-1v-4h1V372.1z M318.3,364.1h-1v-4h1V364.1z M318.3,356.1h-1v-4h1V356.1z"/>
	</g>
	<g>
		<path class="st2" d="M258.7,379.9c-1,0-1.9-0.8-1.9-1.9s0.8-1.9,1.9-1.9s1.9,0.8,1.9,1.9C260.6,379,259.8,379.9,258.7,379.9z"/>
		<path class="st2" d="M258.7,380.1c1.2,0,2.1-1,2.1-2.1s-1-2.1-2.1-2.1s-2.1,1-2.1,2.1C256.6,379.2,257.5,380.1,258.7,380.1
			C259.9,380.1,257.5,380.1,258.7,380.1z M258.7,376.4c0.9,0,1.6,0.7,1.6,1.6s-0.7,1.6-1.6,1.6s-1.6-0.7-1.6-1.6
			S257.8,376.4,258.7,376.4S257.8,376.4,258.7,376.4z"/>
	</g>
	<g>
		<path class="st2" d="M319.7,351.5c0-1-0.8-1.9-1.9-1.9s-1.9,0.8-1.9,1.9s0.8,1.9,1.9,1.9C318.9,353.4,319.7,352.5,319.7,351.5z"/>
		<path class="st2" d="M320,351.5c0,1.2-1,2.1-2.1,2.1s-2.1-1-2.1-2.1s1-2.1,2.1-2.1C319,349.3,320,350.3,320,351.5
			S320,350.3,320,351.5z M316.2,351.5c0,0.9,0.7,1.6,1.6,1.6s1.6-0.7,1.6-1.6s-0.7-1.6-1.6-1.6S316.2,350.6,316.2,351.5
			S316.2,350.6,316.2,351.5z"/>
	</g>
</g>
<g>
	<g>
		<path class="st2" d="M370.1,383.9h-3v-1h3V383.9z M363.1,383.9h-4v-1h4V383.9z M355.1,383.9h-4v-1h4V383.9z M347.1,383.9h-4v-1h4
			V383.9z M339.1,383.9h-3.9v-1.1h1v0.1h2.9V383.9z M336.2,378.8h-1v-4h1V378.8z M336.2,370.8h-1v-4h1V370.8z M336.2,362.8h-1v-4h1
			V362.8z"/>
	</g>
	<g>
		<circle class="st2" cx="335.7" cy="358.9" r="1.9"/>
		<path class="st2" d="M333.6,358.9c0,1.2,1,2.1,2.1,2.1s2.1-1,2.1-2.1s-1-2.1-2.1-2.1C334.5,356.7,333.6,357.7,333.6,358.9
			C333.6,360,333.6,357.7,333.6,358.9z M337.4,358.9c0,0.9-0.7,1.6-1.6,1.6s-1.6-0.7-1.6-1.6s0.7-1.6,1.6-1.6
			C336.6,357.2,337.4,358,337.4,358.9S337.4,358,337.4,358.9z"/>
	</g>
	<g>
		<path class="st2" d="M370,385.3c1,0,1.9-0.8,1.9-1.9s-0.8-1.9-1.9-1.9s-1.9,0.8-1.9,1.9S368.9,385.3,370,385.3z"/>
		<path class="st2" d="M370,385.5c-1.2,0-2.1-1-2.1-2.1s1-2.1,2.1-2.1s2.1,1,2.1,2.1S371.1,385.5,370,385.5S371.1,385.5,370,385.5z
			 M370,381.8c-0.9,0-1.6,0.7-1.6,1.6s0.7,1.6,1.6,1.6s1.6-0.7,1.6-1.6S370.9,381.8,370,381.8S370.9,381.8,370,381.8z"/>
	</g>
</g>
<g>
	<g>
		<path class="st2" d="M594.9,377.1h-2.5v-1h1.5v-1.5h1V377.1z M588.4,377.1h-4v-1h4V377.1z M594.9,370.5h-1v-4h1V370.5z
			 M594.9,362.5h-1v-4h1V362.5z"/>
	</g>
	<g>
		<path class="st2" d="M578.1,378.5c-1,0-1.9-0.8-1.9-1.9s0.8-1.9,1.9-1.9s1.9,0.8,1.9,1.9S579.2,378.5,578.1,378.5z"/>
		<path class="st2" d="M578.1,378.7c1.2,0,2.1-1,2.1-2.1s-1-2.1-2.1-2.1s-2.1,1-2.1,2.1S576.9,378.7,578.1,378.7
			C579.3,378.7,576.9,378.7,578.1,378.7z M578.1,375c0.9,0,1.6,0.7,1.6,1.6s-0.7,1.6-1.6,1.6s-1.6-0.7-1.6-1.6S577.2,375,578.1,375
			C579,375,577.2,375,578.1,375z"/>
	</g>
	<g>
		<path class="st2" d="M596.3,357.5c0-1-0.8-1.9-1.9-1.9s-1.9,0.8-1.9,1.9s0.8,1.9,1.9,1.9S596.3,358.6,596.3,357.5z"/>
		<path class="st2" d="M596.5,357.5c0,1.2-1,2.1-2.1,2.1s-2.1-1-2.1-2.1s1-2.1,2.1-2.1S596.5,356.4,596.5,357.5
			C596.5,358.7,596.5,356.4,596.5,357.5z M592.8,357.5c0,0.9,0.7,1.6,1.6,1.6s1.6-0.7,1.6-1.6s-0.7-1.6-1.6-1.6
			S592.8,356.6,592.8,357.5S592.8,356.6,592.8,357.5z"/>
	</g>
</g>
<g>
	<path class="st2" d="M120.3,317.4V175.6h66.4v23.3h-31.6v31.6h23.6v24.1h-23.6v39.6h32v23.2L120.3,317.4L120.3,317.4z"/>
	<path class="st2" d="M200.9,317.4V175.6h37.4c9.8,0,17.8,0.8,24.1,2.4s11.3,4.3,15.1,8.1s6.4,8.4,7.9,13.9s2.3,12.4,2.3,20.8V272
		c0,8.4-0.8,15.4-2.3,20.9s-4.1,10.1-7.9,13.9s-8.8,6.5-15.1,8.1c-6.3,1.6-14.3,2.4-24,2.4h-37.5V317.4z M235.6,293.4h3.2
		c3,0,5.3-0.2,7.1-0.7c1.7-0.5,3.1-1.4,3.9-2.6c0.9-1.2,1.4-2.6,1.7-4.1s0.4-3.6,0.4-6.4V213c0-2.7-0.1-4.9-0.4-6.3
		c-0.3-1.5-0.8-2.8-1.7-4s-2.2-2-3.9-2.5s-4.1-0.7-7.1-0.7h-3.2V293.4z"/>
	<path class="st2" d="M348.8,319.6c-8.2,0-15.1-0.9-20.7-2.8s-10-4.7-13.4-8.6s-5.7-8.6-7.1-14s-2.1-12-2.1-19.7v-99h34.6v104.8
		c0,1.9,0.1,3.6,0.3,5c0.2,1.4,0.5,2.9,1,4.5s1.4,2.9,2.6,3.8s2.8,1.3,4.7,1.3c1.9,0,3.5-0.4,4.7-1.3s2.1-2.1,2.6-3.8
		c0.5-1.6,0.8-3.1,1-4.5s0.2-3,0.2-5V175.5H392v99c0,7.7-0.7,14.3-2.1,19.7c-1.4,5.4-3.8,10.1-7.1,14s-7.7,6.8-13.4,8.6
		C363.8,318.7,356.9,319.6,348.8,319.6z"/>
	<path class="st2" d="M453.8,319.6c-8.1,0-15-1.1-20.8-3.2c-5.7-2.1-10.3-5.3-13.6-9.5c-3.3-4.2-5.8-9.1-7.3-14.8
		c-1.5-5.6-2.3-12.3-2.3-19.9V221c0-7.7,0.8-14.4,2.3-20s3.9-10.6,7.3-14.8s7.9-7.4,13.6-9.5s12.6-3.2,20.8-3.2c6.4,0,12.1,0.7,17,2
		s8.9,3.2,12.1,5.6c3.2,2.4,5.8,5.3,7.7,8.8c2,3.5,3.4,7.3,4.2,11.2c0.8,4,1.2,8.4,1.2,13.4v12.8h-34v-15.6c0-2.1-0.1-3.7-0.2-4.9
		s-0.4-2.6-0.9-4.3c-0.5-1.6-1.3-2.9-2.5-3.7s-2.7-1.2-4.6-1.2c-1.5,0-2.9,0.3-4,0.9c-1.1,0.6-2,1.4-2.5,2.2c-0.6,0.9-1,2-1.3,3.4
		s-0.5,2.7-0.6,3.8s-0.1,2.4-0.1,3.9v69.8c0,1.5,0,2.8,0.1,3.9s0.3,2.4,0.6,3.8c0.3,1.4,0.8,2.5,1.4,3.4s1.4,1.6,2.5,2.2
		s2.4,0.9,3.9,0.9c1.9,0,3.4-0.4,4.6-1.2c1.2-0.8,2-2.1,2.5-3.7s0.8-3.1,0.9-4.3c0.1-1.2,0.2-2.9,0.2-4.9v-16.2h34.1v12.7
		c0,5-0.4,9.5-1.2,13.5s-2.2,7.8-4.2,11.4s-4.6,6.6-7.7,9c-3.2,2.4-7.2,4.4-12.1,5.8C465.9,318.9,460.3,319.6,453.8,319.6z"/>
	<path class="st2" d="M506.4,317.4l25.7-141.8h40.4L598,317.4h-31.7l-4.5-28.3h-18.4l-4.3,28.3H506.4z M546.1,269.1h12.8l-6.4-52.9
		L546.1,269.1z"/>
	<path class="st2" d="M622.2,317.4V201.2h-20.7v-25.7h76v25.7h-20.6v116.2H622.2L622.2,317.4z"/>
	<path class="st2" d="M690.2,317.4V175.6h34.7v141.8L690.2,317.4L690.2,317.4z"/>
	<path class="st2" d="M808.3,316.5c-5.7,2.1-12.7,3.1-20.8,3.1s-15-1-20.7-3.1s-10.2-5.2-13.6-9.3c-3.4-4.1-5.8-9-7.3-14.6
		s-2.2-12.2-2.2-19.9v-52.4c0-7.6,0.7-14.3,2.2-19.9s3.9-10.5,7.3-14.6c3.4-4.1,7.9-7.2,13.6-9.3c5.7-2.1,12.6-3.1,20.7-3.1
		c8.1,0,15,1,20.8,3.1c5.7,2.1,10.3,5.2,13.7,9.3s5.8,9,7.4,14.6c1.5,5.6,2.3,12.2,2.3,19.9v52.4c0,7.6-0.8,14.3-2.3,19.9
		s-4,10.5-7.4,14.6C818.6,311.3,814,314.4,808.3,316.5z M787.5,295.6c1.9,0,3.4-0.4,4.6-1.2s2-2,2.6-3.6c0.5-1.6,0.8-3,1-4.4
		c0.1-1.3,0.2-2.9,0.2-4.9v-70.1c0-1.9-0.1-3.6-0.2-4.9c-0.1-1.3-0.5-2.8-1-4.3s-1.4-2.8-2.6-3.6c-1.2-0.8-2.7-1.2-4.6-1.2
		c-1.5,0-2.8,0.3-3.9,0.9c-1.1,0.6-1.9,1.4-2.4,2.2s-1,2-1.2,3.4c-0.3,1.4-0.4,2.6-0.5,3.6c0,0.9,0,2.2,0,3.9v70.1
		c0,1.6,0,2.9,0,3.9s0.2,2.2,0.5,3.6c0.3,1.5,0.7,2.6,1.2,3.4s1.3,1.6,2.4,2.2C784.7,295.2,786,295.6,787.5,295.6z"/>
	<path class="st2" d="M850.4,317.4V175.6H875l25.9,60.7v-60.7h28.7v141.8h-23.7l-25.8-66.7v66.7L850.4,317.4L850.4,317.4z"/>
</g>
<g>
	<g>
		<g>
			<path class="st3" d="M701.2,174.3c-0.2,0-0.4-0.1-0.6-0.2c-0.5-0.3-0.6-1-0.2-1.4c0,0,0.7-0.9,1.8-2.5c0.3-0.4,1-0.5,1.4-0.2
				c0.5,0.3,0.5,1,0.2,1.4c-1.2,1.5-1.8,2.4-1.8,2.4C701.8,174.1,701.5,174.3,701.2,174.3z"/>
		</g>
		<g>
			<path class="st3" d="M812.4,188.9c-1.2,0-2.3-0.1-3.5-0.3c-0.5-0.1-0.9-0.6-0.8-1.2c0.1-0.6,0.6-0.9,1.2-0.8
				c1.8,0.3,3.7,0.4,5.7-0.1c0.5-0.1,1.1,0.2,1.2,0.7c0.1,0.6-0.2,1.1-0.7,1.2C814.5,188.8,813.4,188.9,812.4,188.9z M803.4,186.4
				c-0.2,0-0.4-0.1-0.5-0.1c-1.7-1-3.4-2.4-5-4.1c-0.4-0.4-0.4-1.1,0-1.4c0.4-0.4,1-0.4,1.5,0c1.5,1.6,3,2.8,4.6,3.7
				c0.5,0.3,0.6,0.9,0.3,1.4C804.1,186.3,803.7,186.4,803.4,186.4z M820.9,185.8c-0.3,0-0.6-0.1-0.8-0.4c-0.3-0.5-0.2-1.1,0.3-1.4
				c1.5-1,3-2.3,4.7-3.9c0.4-0.4,1-0.4,1.4,0s0.4,1.1,0,1.4c-1.7,1.7-3.3,3-4.9,4.1C821.3,185.8,821.1,185.8,820.9,185.8z
				 M794.7,177.7c-0.3,0-0.6-0.1-0.8-0.4c-1.1-1.5-2.2-3.3-3.4-5.3c-0.3-0.5-0.1-1.1,0.4-1.4s1.1-0.1,1.4,0.4c1.2,2,2.3,3.7,3.3,5.2
				c0.3,0.5,0.2,1.1-0.2,1.4C795.1,177.6,794.9,177.7,794.7,177.7z M829.9,177.3c-0.2,0-0.5-0.1-0.7-0.2c-0.4-0.4-0.5-1-0.1-1.4
				c1.2-1.4,2.5-3,4-4.8c0.3-0.4,1-0.5,1.4-0.2c0.4,0.4,0.5,1,0.2,1.4c-1.5,1.8-2.8,3.4-4,4.8C830.5,177.2,830.2,177.3,829.9,177.3z
				 M837.7,167.6c-0.2,0-0.4-0.1-0.6-0.2c-0.5-0.3-0.5-1-0.2-1.4l1.2-1.6c0.9-1.1,1.7-2.3,2.6-3.4c0.3-0.4,1-0.5,1.4-0.2
				c0.5,0.4,0.5,1,0.2,1.4c-0.8,1.1-1.7,2.2-2.6,3.4l-1.2,1.6C838.3,167.4,838,167.6,837.7,167.6z M788.3,167
				c-0.4,0-0.7-0.2-0.9-0.5l-1-1.9c-0.7-1.2-1.3-2.4-2-3.6c-0.3-0.5-0.1-1.1,0.4-1.4c0.5-0.3,1.1-0.1,1.4,0.4c0.7,1.2,1.3,2.4,2,3.6
				l1,1.9c0.3,0.5,0.1,1.1-0.4,1.4C788.6,167,788.4,167,788.3,167z M706.9,167c-0.2,0-0.5-0.1-0.7-0.2c-0.4-0.4-0.5-1-0.1-1.4
				c1.3-1.6,2.7-3.2,4.2-4.7c0.4-0.4,1-0.4,1.4-0.1c0.4,0.4,0.4,1,0.1,1.4c-1.4,1.5-2.8,3.1-4.1,4.6
				C707.5,166.9,707.2,167,706.9,167z M715.3,157.8c-0.3,0-0.5-0.1-0.7-0.3c-0.4-0.4-0.4-1.1,0-1.4c1.5-1.5,3-2.9,4.6-4.3
				c0.4-0.4,1.1-0.3,1.4,0.1c0.4,0.4,0.3,1.1-0.1,1.4c-1.5,1.3-3,2.8-4.5,4.2C715.8,157.7,715.6,157.8,715.3,157.8z M845.4,157.8
				c-0.2,0-0.5-0.1-0.7-0.2c-0.4-0.4-0.5-1-0.1-1.4c1.6-1.9,3-3.4,4.2-4.7c0.4-0.4,1-0.4,1.5,0s0.4,1.1,0,1.4
				c-1.2,1.2-2.6,2.7-4.1,4.6C846,157.6,845.7,157.8,845.4,157.8z M782.2,156.2c-0.3,0-0.7-0.2-0.9-0.5c-1.2-1.9-2.3-3.6-3.4-5.1
				c-0.3-0.5-0.2-1.1,0.2-1.4c0.5-0.3,1.1-0.2,1.4,0.2c1.1,1.6,2.3,3.3,3.5,5.3c0.3,0.5,0.1,1.1-0.3,1.4
				C782.5,156.1,782.3,156.2,782.2,156.2z M724.6,149.6c-0.3,0-0.6-0.1-0.8-0.4c-0.3-0.4-0.3-1.1,0.2-1.4c1.7-1.3,3.4-2.6,5.1-3.7
				c0.5-0.3,1.1-0.2,1.4,0.3c0.3,0.5,0.2,1.1-0.3,1.4c-1.6,1.1-3.3,2.3-5,3.6C725.1,149.5,724.9,149.6,724.6,149.6z M774.8,146.1
				c-0.3,0-0.5-0.1-0.8-0.3c-1.4-1.6-3-2.9-4.5-4c-0.5-0.3-0.5-1-0.2-1.4c0.3-0.5,1-0.6,1.4-0.2c1.6,1.2,3.2,2.6,4.8,4.3
				c0.4,0.4,0.4,1.1,0,1.4C775.3,146,775.1,146.1,774.8,146.1z M735,142.6c-0.4,0-0.7-0.2-0.9-0.5c-0.3-0.5-0.1-1.1,0.4-1.4
				c1.9-1.1,3.8-2,5.7-2.7c0.5-0.2,1.1,0,1.3,0.6s0,1.1-0.6,1.3c-1.8,0.7-3.7,1.6-5.5,2.6C735.3,142.6,735.2,142.6,735,142.6z
				 M764.8,138.9c-0.1,0-0.3,0-0.4-0.1c-1.7-0.7-3.5-1.2-5.4-1.5l-0.3-0.1c-0.6-0.1-0.9-0.6-0.9-1.2s0.6-0.9,1.2-0.9l0.4,0.1
				c2,0.3,4,0.9,5.8,1.6c0.5,0.2,0.8,0.8,0.5,1.3C765.6,138.7,765.2,138.9,764.8,138.9z M746.5,138c-0.5,0-0.9-0.3-1-0.8
				c-0.1-0.6,0.2-1.1,0.8-1.2c2.1-0.5,4.3-0.9,6.3-1c0.6-0.1,1,0.4,1.1,1c0,0.6-0.4,1.1-1,1.1c-1.9,0.1-3.9,0.4-6,0.9
				C746.7,138,746.6,138,746.5,138z"/>
		</g>
	</g>
	<g>
		<polygon class="st4" points="887,129.8 852.3,151.2 853.9,138.7 		"/>
		<polygon class="st3" points="887,129.8 852.3,151.2 856.6,142.3 		"/>
		<g>
			<polygon class="st2" points="866.7,155.4 845.1,129 891.9,124 			"/>
			<polygon class="st4" points="890.4,124.8 853.7,139.5 856.3,142.8 			"/>
		</g>
	</g>
</g>
<g>
	<path class="st4" d="M656.5,141.3c0,0,3.3,12,5,14c1.6,2,7,4.9,7,4.9l-1.4,2.5c0,0-9.7-4.9-11.4-9c-1-2.4-1.6-4.4-2-6.2
		c-0.3-1.5-1.4-5.2-0.8-6.7C653.2,139.8,655.7,139.3,656.5,141.3z"/>
	<path class="st5" d="M656.5,141.3c0,0,3.3,12,5,14c1.6,2,7,4.9,7,4.9l-1.4,2.5c0,0-9.7-4.9-11.4-9c-1-2.4-1.6-4.4-2-6.2
		c-0.3-1.5-1.4-5.2-0.8-6.7C653.2,139.8,655.7,139.3,656.5,141.3z"/>
	<path class="st3" d="M689.8,198.6l2.5-2.3c0,0,9.8-0.7,10.4,0.1s-9.3,5.5-10.6,5.4C690.8,201.8,690,199.5,689.8,198.6z"/>
	<path class="st6" d="M671.9,165.4c0,0,9.3-2.4,10-0.8c0.8,1.5,10.4,31.7,10.4,31.7l-2.5,2.3c0,0-10.3-25.5-13.3-28.2
		C673.5,167.8,670.5,166.5,671.9,165.4z"/>
	<path class="st7" d="M671.9,165.4c0,0,9.3-2.4,10-0.8c0.8,1.5,10.4,31.7,10.4,31.7l-2.5,2.3c0,0-10.3-25.5-13.3-28.2
		C673.5,167.8,670.5,166.5,671.9,165.4z"/>
	<g>
		<path class="st6" d="M667.1,159.9c0.7-0.2,1.3-0.4,1.9-0.8c0.5-0.3,1-0.6,1.6-0.5c0.4,0.1,4,1.6,3.1,2.2c-0.3,0.2-1.1-0.2-1.4-0.3
			c-0.4-0.2-0.9-0.4-1.3-0.6c0.4,0,2.3,0.8,2.1,1.2c-0.4,0.8-2.3-0.3-2.8-0.5c0.3,0.1,1.5,0.5,1.5,0.9c0,0.7-1.4,0.1-1.8,0
			c-0.2-0.1-0.4-0.3-0.7-0.3s-0.6,0.1-0.9,0.1c-0.5,0.1-1,0.1-1.5,0c-0.3,0-1,0-1.1-0.2c-0.2-0.3,0-0.9,0.2-1.1
			C666.4,160,666.8,159.9,667.1,159.9z"/>
		<path class="st8" d="M667.1,159.9c0.7-0.2,1.3-0.4,1.9-0.8c0.5-0.3,1-0.6,1.6-0.5c0.4,0.1,4,1.6,3.1,2.2c-0.3,0.2-1.1-0.2-1.4-0.3
			c-0.4-0.2-0.9-0.4-1.3-0.6c0.4,0,2.3,0.8,2.1,1.2c-0.4,0.8-2.3-0.3-2.8-0.5c0.3,0.1,1.5,0.5,1.5,0.9c0,0.7-1.4,0.1-1.8,0
			c-0.2-0.1-0.4-0.3-0.7-0.3s-0.6,0.1-0.9,0.1c-0.5,0.1-1,0.1-1.5,0c-0.3,0-1,0-1.1-0.2c-0.2-0.3,0-0.9,0.2-1.1
			C666.4,160,666.8,159.9,667.1,159.9z"/>
	</g>
	<g>
		<polygon class="st3" points="683.2,143.8 685.3,144.7 677.8,162.8 675.6,161.6 		"/>
		<rect x="662.2" y="161.3" class="st3" width="14.3" height="2.2"/>
	</g>
	<path class="st3" d="M636.9,151c1.9-1.1,2.2-2.3,1.2-6.3c-1.1-4,1.7-8.1,4.4-9.2c2-0.8,3.7-1.2,4.9-3.2s-1.1-6.5,2.7-9.8
		c2.7-2.4,6.7-0.5,6.7-0.5c0.8-0.5,1.2,4.5,1.3,8.2c-4.8,7.3-3.4,16.8-1.7,25c0,0.2,0.1,0.4,0.2,0.6c-0.4,6.3-0.7,11.6-0.7,11.6
		s-11.5,6.5-19.3,0.9C628.7,162.6,633.1,153.2,636.9,151z"/>
	<path class="st3" d="M670.6,197.1l2.9,1.7c0,0,3.6,9.2,2.9,10c-0.7,0.8-8-7.3-8.3-8.5C667.9,199,669.8,197.5,670.6,197.1z"/>
	<path class="st6" d="M666.9,164.9c0,0,18.7,1.3,20.5,3s-14.1,30.8-14.1,30.8l-2.6-1.5c0,0,3.9-13.8,5-17c1-3.2,3-7.1,2.6-7.6
		s-19.2,2.3-19.1-3C659.3,164.2,666.9,164.9,666.9,164.9z"/>
	<path class="st6" d="M657.7,133.3c0,0-2,5.4-0.8,9.3l-6.5-1.6c0,0,2.7-8.9,3.8-10.5C655.3,129.1,657.7,133.3,657.7,133.3z"/>
	<path class="st7" d="M657.7,133.3c0,0-2,5.4-0.8,9.3l-6.5-1.6c0,0,2.7-8.9,3.8-10.5C655.3,129.1,657.7,133.3,657.7,133.3z"/>
	<path class="st6" d="M658.4,126.3c0,0,2.5,1.2,3.2,2.2c0.6,1,0.1,2.4,0.1,3.4s0.3,2.3,0.2,2.6s-1.1,0-1.2,0.2
		c-0.2,0.2-1.4,1-1.8,1.8s-0.9,0.9-1.8,0.5c-0.9-0.4-4.3-4.9-4.3-7C652.7,127.9,655.8,125.5,658.4,126.3z"/>
	<path class="st3" d="M656.2,123.5c0,0,1.2,2.4,1.3,3.3s-0.8,3.7-1.3,4.1c-0.5,0.4-0.1-3.1-1.4-2.1c-1.3,1.1,0.1,3.1,0,3.5
		s-0.7,1.7-2.1,1.8s-3.7-6.8-2.2-8.5S654.6,123.5,656.2,123.5z"/>
	<path class="st9" d="M648.4,159.1l8.7-0.6c0,0,4.5,5,9,5c4.4,0,15.2,0,15.2,0s-0.8,6.3-4.4,11.4c0,0-14.5,1.1-21.6,0.5
		C648.2,174.8,641.5,167,648.4,159.1z"/>
	<path class="st10" d="M647.5,160.1c0.2-0.3,0.5-0.7,0.8-1l8.7-0.6c0,0,4.4,4.9,8.8,5C660.5,164,650.4,165.2,647.5,160.1z"/>
	<path class="st11" d="M677.2,164.5c-2.2-0.2-4.4-0.7-6.5-1h9.6C679.3,164,678.8,164.7,677.2,164.5z"/>
	<path class="st4" d="M651.2,138.1c0,0,4,1.6,5.3,1.7c0,0,2.8,6.2,3.9,7.9c1.1,1.7-2.8,8.1-3,10.8c0,0-2.3,2.2-9.3,0.9
		C648.1,159.3,646.3,141.9,651.2,138.1z"/>
	<path class="st5" d="M650.2,141.8c1.2-0.6,3.3,0,3.9,1.2c0.7,1.5,0,4.2,0.1,5.8c0.1,1.7,0.2,4,0.6,5.7c0.3,1.3,1.2,2.9,2.3,4.2
		c-0.9,0.5-3.5,1.6-9,0.6c0,0-1.1-10.6,0.7-17.1C649.4,142.1,649.8,141.9,650.2,141.8z"/>
	<path class="st6" d="M665.7,159.9c0.7-0.2,1.3-0.4,1.9-0.8c0.5-0.3,1-0.6,1.6-0.5c0.4,0.1,4,1.6,3.1,2.2c-0.3,0.2-1.1-0.2-1.4-0.3
		c-0.4-0.2-0.9-0.4-1.3-0.6c0.4,0,2.3,0.8,2.1,1.2c-0.4,0.8-2.3-0.3-2.8-0.5c0.3,0.1,1.5,0.5,1.5,0.9c0,0.7-1.4,0.1-1.8,0
		c-0.2-0.1-0.4-0.3-0.7-0.3s-0.6,0.1-0.9,0.1c-0.5,0.1-1,0.1-1.5,0c-0.3,0-1,0-1.1-0.2c-0.2-0.3,0-0.9,0.2-1.1
		C665.1,160,665.4,159.9,665.7,159.9z"/>
	<path class="st4" d="M666.3,159.8l-0.8,2.9c0,0-18.8-2.2-19.2-5.5s0.8-18.8,5.3-17.2s0,12.9,0.8,13.7
		C653.1,154.5,666.3,159.8,666.3,159.8z"/>
	<path class="st3" d="M656,122.2c0,0,2.2-1.7,4.6,0.2s2.2,4.7,4.2,4.5c0,0-1.3,3.3-4,2.5C657.9,128.6,655.1,124.2,656,122.2z"/>
</g>
<g>
	<path class="st8" d="M190.5,154.4c-0.5-0.3-1-0.6-1.3-1.1c-0.1-0.2-0.3-0.5-0.5-0.6s-0.4-0.4-0.6-0.7c-0.2-0.2-0.4-0.5-0.7-0.6
		c-0.4-0.1-0.3,0.4-0.1,0.7c0.1,0.3,1.1,0.9,0.9,1.3c-0.1,0.4-1.2-0.5-1.4-0.6c-0.5-0.4-0.4-0.9-0.7-1.4c-0.1-0.3-0.3-0.4-0.5-0.1
		c-0.1,0.3,0,0.6,0.1,0.8c0.2,0.5,0.5,1.1,0.9,1.4c-0.4-0.2-0.8-0.9-1-1.2c-0.1-0.3-0.6-1.5-1-1.3c-0.9,0.4,0.8,2.8,1.3,3.1
		c-0.4-0.3-0.8-0.8-1.1-1.2c-0.2-0.3-0.6-0.9-0.8-0.4c-0.3,0.8,1.2,1.7,1.8,2.2c-0.5-0.2-0.8-0.5-1.2-0.9c-0.5-0.4-0.7,0.1-0.2,0.6
		c0.2,0.2,0.7,0.6,0.8,0.7c1.1,0.8,1.8,1,3.1,1.1c0.5,0.1,1.3,0.6,1.6,0.4C190.4,156.2,190.4,155.1,190.5,154.4z"/>
	<path class="st12" d="M189.8,153.1c0,0,10.1,2.8,11.2,2.8c1-0.1,3.4-9,4.4-13.4c0.1-0.4,1.4-0.4,3-1.7c0.6-0.5,2.5,0.5,3.1,0
		c1.2,1.3,1.5,3.1,0.8,4.7c-2.3,5.1-4.3,14.9-9.6,15c-7,0.1-14.2-3.5-14.2-3.5L189.8,153.1z"/>
	<path class="st8" d="M187.6,154.3c0,0,0.4-0.7,0.5-0.9c0.1-0.4-0.8-1-0.9-1.3c-0.1-0.3-0.2-0.8,0.1-0.7s0.5,0.4,0.7,0.6
		c0.2,0.2,0.4,0.5,0.6,0.7c0.2,0.2,0.4,0.4,0.5,0.6c0.1,0.2,0.3,0.3,0.4,0.5C189.2,154.2,187.6,154.3,187.6,154.3z"/>
	<path class="st3" d="M185.1,185.4c0,0-0.9,4.4-1.8,4.8c-0.9,0.4-10.1-1.9-10.6-2.9s0.2-2.1,2.2-2c1.8,0.1,2.9,0.7,4.4,0.5
		c1.2-0.2,2.5-2.6,2.5-2.6L185.1,185.4z"/>
	<path class="st3" d="M200.6,195.3c0,0,2.4,3.8,2,4.7s-8.5,5.6-9.6,5.3c-1.1-0.4-1.3-1.7,0.1-3c1.3-1.2,2.6-1.5,3.5-2.6
		c0.8-1,0-3.6,0-3.6L200.6,195.3z"/>
	<path class="st4" d="M214.4,163.1c0,0-3.7,1.9-5.4,1.7s-16.5,0.9-18.2,2.4c-1.7,1.4,5.3,29.9,5.3,29.9l5.9-1c0,0-2.1-20.8-1.8-21
		c0.4-0.1,9.2-0.1,24.3-0.1c3.7,0,7.8-7.7,3.1-13.1L214.4,163.1z"/>
	<path class="st5" d="M193.3,169.5c0.7-1.2,1.2-2.6,1.6-4c5.1-0.6,12.8-0.8,14-0.7c1.7,0.2,5.4-1.7,5.4-1.7l0.9-0.1
		c-1.1,1.5-2.3,2.8-3.9,3.2c-1.9,0.4-3.8,0.5-5.7,1c-3.2,0.8-6.3,2.5-7.8,5.7c-1.7,3.8-3.5,7.8-4.7,12.1c-1-4.3-1.9-8.9-2.5-12.4
		C191.9,172,192.7,170.5,193.3,169.5z"/>
	<path class="st4" d="M212.9,159.9c0,0-17.6,1.1-19.3,2.7c-1.7,1.6-13,21.1-13,21.1l4.7,3.4c0,0,9.3-13.7,13.7-19c1-1.2,2.4-2,4-2.3
		c1.9-0.3,4.7-0.7,6.8-0.9c3.5-0.2,5.1-1.9,5.1-1.9L212.9,159.9z"/>
	<path class="st6" d="M208.3,132.8c0.6-0.3,1-0.7,1.4-1.2c0.4,1.7,1.4,4.8,3.4,6.2c0,0-3.4,1.9-6.5,1.6c0,0-0.1-4.1-1-6
		C206.6,133.4,207.5,133.2,208.3,132.8z"/>
	<path class="st7" d="M208.3,132.8c0.6-0.3,1-0.7,1.4-1.2c0.4,1.7,1.4,4.8,3.4,6.2c0,0-3.4,1.9-6.5,1.6c0,0-0.1-4.1-1-6
		C206.6,133.4,207.5,133.2,208.3,132.8z"/>
	<path class="st6" d="M205.4,122.3c0,0-4.5,0.3-5.5,1.6c-1,1.3-1,4.2-0.2,5.5c0.8,1.4-0.2,3.7-0.1,4.3c0.1,0.4,1.6,0.2,1.7,0.4
		s1.2,2.8,3.1,2.6c2.7-0.3,5.3-3.6,5.9-5.5C210.8,129.1,209.5,121.7,205.4,122.3z"/>
	<path class="st3" d="M197.9,125.3c0.1-0.3,0.5-0.8,0.6-1.2c0-0.3,0-0.6,0-0.8c0.2-0.8,0.1-1.3,1.7-2.6c1.4-1.1,3.7-1.3,5.3-0.8
		c0.6,0.2,1.2,0.5,1.7,0.9c0.1,0.1,0.6,0.4,0.6,0.6s-0.6,0.6-0.7,0.8c-0.3,0.3-0.4,0.7-0.6,1.1c-1.3,2.2-3.5,4.9-6.3,3.6
		c-0.4-0.2-0.8-0.4-1.1-0.6c-0.1,1,0,2,0.5,2.9c0,0-0.9-0.2-1.3-1C197.5,127,197.6,126,197.9,125.3z"/>
	<path class="st3" d="M206.4,121.9c0.4-0.4,1.3-0.7,1.9-0.8c1.1-0.2,2,0.4,2.6,1.3c0.4,0.6,0.7,1.2,0.9,1.8c0.4,1.1,0.6,1.8,0.6,3
		c0,1.1-0.1,2.3-0.7,3.3c-0.5,0.9-1.6,2.2-2.4,2.2c-0.3,0-1.4-1.8-1.6-2.3c-0.1-0.5,0.1-0.6,0.4-1c0.5-0.6,0.9-1.6,0.2-2.2
		c-1.1-0.8-2.1,0.1-2,1.8c0,0-0.2,1.1-0.5,1C205.6,130.1,202.7,126.3,206.4,121.9z"/>
	<path class="st13" d="M230.5,163.5c0,0-5.2,5.7-19.1,1.8c0,0-0.5-3.4-1.9-6.9c-1.5-3.4-3.9-10.1-4.3-13.7c-0.5-4.1,1.5-6.2,1.5-6.2
		s2.6,1.9,5.8-1.4c0,0,6.8,0.8,10.9,8S230.5,163.5,230.5,163.5z"/>
	<path class="st12" d="M211.5,143c0.1-0.2,0.1-0.4,0.1-0.5c3.3,1.6,2.9,4.8,2.1,9.6c-0.6,3.7-2.4,9.6-2.7,10.9
		c-0.3-1.3-0.8-2.9-1.5-4.6c-0.7-1.6-1.6-3.8-2.3-6.2c1.2-1.8,2-3.6,2.7-5.7C210.3,145.3,211.1,144.2,211.5,143z"/>
	<g>
		<path class="st2" d="M188.8,151.1l-11.6-6.9c0,0-4.2,4.2-5.4,9.8l13.2,6.2C185,160.1,187,155.3,188.8,151.1z"/>
		<path class="st14" d="M179.9,155.4c2.7-0.8,5.6-2.9,6.9-5.6l2.1,1.2c-1.8,4.2-3.9,9.1-3.9,9.1l-9.6-4.5
			C176.8,155.9,178.2,155.9,179.9,155.4z"/>
	</g>
	<path class="st6" d="M188.9,158.2c-0.6,0-1.2,0.1-1.7-0.2c-0.2-0.1-0.5-0.3-0.8-0.3s-0.6-0.1-0.9-0.2c-0.3-0.1-0.6-0.2-0.9-0.1
		c-0.4,0.1,0,0.4,0.2,0.6c0.3,0.2,1.4,0.2,1.5,0.6s-1.3,0.3-1.6,0.2c-0.6-0.1-0.9-0.5-1.3-0.8c-0.3-0.2-0.5-0.2-0.5,0.2
		c0,0.3,0.3,0.5,0.5,0.7c0.4,0.3,1,0.6,1.5,0.7c-0.4,0-1.1-0.3-1.5-0.5c-0.3-0.1-1.3-1-1.6-0.6c-0.6,0.8,2.2,1.9,2.7,1.9
		c-0.6,0-1-0.2-1.6-0.4c-0.3-0.1-1-0.4-0.9,0.1c0.2,0.8,1.9,0.8,2.7,1c-0.5,0.1-1,0-1.5-0.1c-0.7-0.1-0.5,0.4,0.2,0.6
		c0.3,0.1,0.9,0.1,1,0.2c1.4,0.1,2.1-0.1,3.3-0.7c0.4-0.2,1.4-0.1,1.6-0.5C189.8,159.8,189.1,158.8,188.9,158.2z"/>
	<path class="st13" d="M188.6,157.7l-0.3,3.9c0,0,16.8,1.4,18.7,0.1c1.9-1.2,2.8-3.2,3.4-5c1.2-3.6,6-13.4,1.7-14.9
		c-1.4-0.5-3.1-0.5-4.1,1.3c-2,3.9-4.2,12.8-4.8,13.1C202.5,156.8,188.6,157.7,188.6,157.7z"/>
</g>
<g>
	<g>
		<path class="st3" d="M286.4,235.9c0,0,2.4,7,3.8,10.1c7.9,17.3-6.7,15.1-12.2,14.3c-5.5-0.8-11.8-2.9-11.5-7.4
			c0.2-3,2.1-3.4,2.8-4.4s-0.7-2.7-0.1-5.2s4.8-3,5.6-3.7c0.8-0.7,2.5-2.6,1.7-6.2s-1.2-5.6,1.2-7.9c2.4-2.4,6-1.3,6-1.3
			L286.4,235.9z"/>
		<path class="st6" d="M313.5,262.8c-0.5-0.4-2.4,0.7-3.8,1.2c-0.8,0.3-2.4,0.3-3.6,0.3c0,0.7-0.1,1.4-0.3,2c0.9,0,1.6,0.2,2.2,0.1
			c0.7,0,2-0.2,2.5-0.3c0.5-0.1,1.2-0.1,1.6,0.2c1.6,1.3,2.4,1.4,2.6,0.9c0-0.1-1.2-1.2-1.6-1.6c0.7,0.6,2.4,1.8,2.7,1.5
			c0.3-0.3-1.3-1.7-2-2.3c0.7,0.6,2.5,2.1,2.9,2C317.8,266.5,314,263.2,313.5,262.8z"/>
		<rect x="300.7" y="266.6" class="st3" width="19.5" height="2.5"/>
		<path class="st13" d="M307.5,264l-0.7,2.9c0,0-9-1-12.1-2.4s-6.1-8.7-6.1-8.7l2.3-9.2c0,0,4.5,12,6.1,13.5
			C298.7,261.5,307.5,264,307.5,264z"/>
		<path class="st15" d="M344,259h-38.1c-1,0-1.8-0.8-1.8-1.8v-23c0-1,0.8-1.8,1.8-1.8H344c1,0,1.8,0.8,1.8,1.8v23
			C345.8,258.2,345,259,344,259z"/>
		<path class="st3" d="M306.2,257.2v-23c0-1,0.8-1.8,1.8-1.8h-2.2c-1,0-1.8,0.8-1.8,1.8v23c0,1,0.8,1.8,1.8,1.8h2.2
			C307,259,306.2,258.2,306.2,257.2z"/>
		<path class="st3" d="M325,265.6c0,0,0.8-8.1-2.9-10.8c0,0-0.8-0.7,0.5-1.5s5.2-1.7,6.5,0.7s2.2,6.5,1.6,11.6H325L325,265.6z"/>
		<g>
			<g>
				<rect x="272" y="284.9" class="st15" width="1.7" height="45.5"/>
				<rect x="304" y="284.9" class="st15" width="1.7" height="45.5"/>
			</g>
			<rect x="267.4" y="282.2" class="st3" width="43" height="4.5"/>
		</g>
		<path class="st3" d="M290.7,310.1c0,0-4.4,3.8-4.4,4.4c0,0.5,7.5,13.3,8.8,13.3s1.6-2.2,1.4-3s-2.6-13-2.6-13L290.7,310.1z"/>
		<path class="st3" d="M284.4,312.5c0,0-4.3,4-4.2,4.5s7.9,13,9.2,13s1.5-2.2,1.3-3s-3-12.9-3-12.9L284.4,312.5z"/>
		<path class="st9" d="M287.1,268.8c0,0,5.5,2.6,11.9,5.1c4,1.6,9.7,3.6,9.5,8c-0.1,3.2-12.9,33.7-12.9,33.7l-5.8-2.9
			c0,0,10.6-25.7,10.4-27.5s-1.4-0.2-11.9-1.1c-10.5-1-13.7-3-13.6-7.9c0.1-5,2.8-11.9,7.1-13.7
			C286.1,260.7,287.1,268.8,287.1,268.8z"/>
		<path class="st10" d="M287.1,268.8c0,0,2.1,2.7,8.5,5.2c4,1.6,9.1,4.5,9.1,7.2c0,3.2-11.9,33-11.9,33l-2.9-1.5
			c0,0,10.6-25.7,10.4-27.5s-1.4-0.2-11.9-1.1c-10.5-1-13.7-3-13.6-7.9c0.1-5,2.8-11.9,7.1-13.7S287.1,268.8,287.1,268.8z"/>
		<path class="st9" d="M284.2,265c0,0,1.7,7,5.7,8.7s13.2,3.6,13.2,8c0,3.2-13.7,34.6-13.7,34.6l-7-3.3c0,0,9.3-25.4,9.1-27.1
			s0.7-0.9-9.8-1.5s-11.9-2.6-12-7.6s6.4-11.7,6.4-11.7C280.2,263.1,284.2,265,284.2,265z"/>
		<path class="st7" d="M287,234.7c0,0-1.7,6.8,1.4,10.3c0,0,4.1,5.5-2.4,6.5c-6.5,0.9-5.6-7.6-5.6-7.6s1.1-9.4-0.6-13.4
			C279.8,230.5,284,232.8,287,234.7z"/>
		<path class="st6" d="M282.6,225.1c0,0,8.9,0.4,9,2.6s-0.8,3.6-0.5,5.6c0.6,4.1-1.8,8.7-2.8,8.9c-1.6,0.3-7.1-2.1-8-5.5
			C279.4,233.4,279.2,223.8,282.6,225.1z"/>
		<path class="st6" d="M291.1,264.4c0,0,1.9,0.2,2.2,0.2c0.4,0,5.5-2.9,6.1-2.5c0.5,0.4,5.8,4,5.6,4.7s-1.6,0.3-4.4-2.1
			c0,0,3.7,2.6,3,3.2s-3.9-2.3-3.9-2.3s3.3,2.5,2.5,3s-3.7-2.4-3.7-2.4s2.3,2.2,2,2.6s-1.8-0.3-3.4-1.7c0,0-0.3-0.2-1.1,0.3
			s-6-0.4-6-0.4L291.1,264.4z"/>
		<path class="st3" d="M292.3,231.9c0,0-6.2,1.4-8.2-3.3c-1.6-3.8-1-4.2-1-4.2s3.4-2.7,7.4,0.9C293.2,227.8,292.3,231.9,292.3,231.9
			z"/>
		<path class="st3" d="M283.6,224.3c0,0,3.3,2.9,1.5,5.6c-1.6,2.5-0.6,3.8-0.9,5.5c0,0-0.8-0.4-1-1.1c-0.2-0.8-0.4-2.7-1.5-2.4
			c-1,0.3-2,1.6,0,3.2c0,0,1.1,2.2-0.3,4c0,0-5.3-4.6-3.8-9.7C279.2,224.2,283.6,224.3,283.6,224.3z"/>
		<path class="st13" d="M287.7,244.1c0,0,0.4,3.2-0.8,3.8s-5.3-5.5-5.3-5.5s-5.6,2.4-6.9,3.4s0.6,10.9,0.6,10.9s-3.9,11.8-3.4,14.4
			s17.5-0.5,17.5-0.5s1.6-12.1,2.3-13.9c0.6-1.8,1.5-2.9,0.6-5.5c-1.2-3.7-1.5-4.6-1.5-4.6S289,244.6,287.7,244.1z"/>
		<path class="st12" d="M277.6,254.8c-1.3-1.7-0.5-4.6-1.9-6.4c-0.4-0.5-0.8-1.1-1.3-1.6c-0.3,2.8,1,9.8,1,9.8s-3.9,11.8-3.4,14.4
			s17.5-0.5,17.5-0.5s1.5-10.6,2.1-13.4c-0.4,0.6-3.9,4.9-7.7,4.3C281.9,261,280.2,258.3,277.6,254.8z"/>
		<path class="st3" d="M280.6,233c0,0-0.1,1.3,1,1.6c0.5,0.1,0.4,1.6,0.8,3c0.7,2.8,0.3,4.6-1.8,5.4c-1.5,0.6-3.5,1-5.9,2.7
			s-0.9-5.3,2.1-7C279.8,237,280.6,233,280.6,233z"/>
		<path class="st3" d="M334.3,269.1h-12.5c-0.8,0-1.2-0.8-0.9-1.5l0.7-1.5c0.2-0.3,0.5-0.6,0.9-0.6h11c0.4,0,0.7,0.2,0.9,0.6
			l0.7,1.5C335.5,268.3,335,269.1,334.3,269.1z"/>
		<g>
			<g>
				<rect x="244.2" y="269.1" class="st16" width="109.1" height="2.9"/>
				<g>
					<g>
						<rect x="248.3" y="270.4" class="st16" width="1.3" height="60.1"/>
					</g>
					<g>
						<rect x="348" y="270.4" class="st16" width="1.3" height="60.1"/>
					</g>
				</g>
			</g>
		</g>
		<path class="st13" d="M292.7,264.3l-0.3,3.7c0,0-21.7,0.2-24.9-0.2s-4.7-4.7-2.6-8.5c2.1-3.8,8.4-13.6,11.1-13.9s4.3,3.5,2.1,7.6
			c-2.3,4.1-6.4,8-5.5,8.6C273.4,262.3,292.7,264.3,292.7,264.3z"/>
	</g>
</g>
<g>
	<polygon class="st15" points="551.1,250.2 553.6,286.2 581,287.9 580.3,251.2 	"/>
	<path class="st15" d="M578.5,249.3c-2.2-0.7-7.3,19.4-6.5,22.6c0.5,2.2,19.2,1.4,19.2,1.4l0.2-3.8c0,0-11.8-1.3-11.8-2.3
		s3.5-7.4,3.5-7.4S580.8,250,578.5,249.3z"/>
	<path class="st7" d="M569.7,237.5l-5,0.8c0,0,1.4,4.5-0.8,8.3c0,0,3.6,3.9,6.1,2.9c2.7-1.1,1.7-3.8,1.7-3.8S569,243.5,569.7,237.5z
		"/>
	<path class="st6" d="M563.9,229.8c0,0,7.8-0.9,8.4,0.4c0.5,1.3,0.7,5,1.2,5.8s1.4,1.7,1.1,2.2c-0.3,0.5-0.7,0.4-0.9,0.9
		c-0.2,0.6-0.1,3.8-1.2,4.3s-6.3,0.2-8.2-2.8C562.3,237.6,560.1,230.1,563.9,229.8z"/>
	<path class="st3" d="M561.9,230.5l5.2,2.4c0,0-0.2,3,1.3,5.7c0,0-0.5,0.7-1,0.3s-0.8-0.6-0.9-1.4c-0.1-0.8-0.6-2.8-1.9-1.8
		s0.1,2.2,0.8,2.5c0,0,1.1,3.9-1,3.7c0,0-1.9-1.2-3.6-6C559.2,231.2,560.6,229.6,561.9,230.5z"/>
	<path class="st3" d="M574.5,228.8c0,0,1.9,2.7-2.5,4.5c-4.3,1.8-10.5-2.9-10.5-2.9s0.2-2.4,3.6-3.4c2.6-0.8,5-0.6,6.3,0.9
		C573.7,230.4,574.5,228.8,574.5,228.8z"/>
	<g>
		<rect x="556" y="289.8" class="st15" width="1.5" height="39.5"/>
		<rect x="583.7" y="289.8" class="st15" width="1.5" height="39.5"/>
	</g>
	<rect x="552" y="286.2" class="st3" width="37.3" height="5.2"/>
	<path class="st15" d="M564.5,245.3c0,0-7,1.9-7.3,2.1c0,0,0.8,10.2,0.7,12.9s-1.2,14.4-1.2,14.4h21.8c0,0-0.3-11.9-0.2-14.5
		c0,0-0.7-8.8,0.2-10.9c0,0-4.6-2.9-6.7-3.7c0,0,0,2.9-1.5,3.7C568.7,250.1,564.5,245.3,564.5,245.3z"/>
	<path class="st17" d="M578.3,260.2c0,0,0-1.2-0.1-2.9c-0.4,1.4-0.9,2.9-1.6,4.3c-1.4,2.9-4.9,7-8.7,6.6s-6.8-3.8-7.7-7.4
		c-0.7-2.7-0.4-5.7-1.3-8.4c-0.4-1.2-1-2.1-1.7-3c0.2,3.1,0.6,9,0.5,11c-0.1,2.7-1.2,14.4-1.2,14.4h21.8
		C578.4,274.7,578.2,262.8,578.3,260.2z"/>
	<g>
		<path class="st3" d="M578,272.6l-5-8.4c0,0-1.2-0.7-1.2,0.8l5.7,8C577.6,273,578.9,274.6,578,272.6z"/>
		<path class="st6" d="M576.1,270.5c-0.4-0.5-0.8-1.4-1.7-1.9s-4.5,1.1-4.7,1.1c-0.1,0-2.4,0.7-2.9,0.6c-0.1,0.8-0.3,1.7-0.5,2.5
			c0.8,0.3,3.6-0.2,3.9-0.3c0.7-0.1,1.3,0.1,1.9,0.5s1.1,0.7,1.5,0.7c0.4-0.1,0-0.6-0.3-0.9l0,0c1,1.2,1.5,1,1.7,0.8
			c0.2-0.3-1.1-1.5-1.2-1.6s-1.3-1-1.3-1c0.4,0.1,1.3,0.9,1.5,1c0.1,0.1,1.5,2.2,2,1.6s-0.7-1.7-1.1-2.4c-0.5-0.7-1.5-1.2-1.5-1.2
			c0.6-0.1,1.5,1,1.8,1.3c0.3,0.4,1.1,2.1,1.8,1.7C577.7,272.6,576.5,271,576.1,270.5z M573.3,272.8c-0.3-0.3-1.1-0.8-1.1-0.8
			S572.9,272.4,573.3,272.8z"/>
		<path class="st6" d="M575.9,269c0,0,1.3,0.5,1.6,1.1c0.2,0.6-0.1,1-0.5,0.8L575.9,269z"/>
	</g>
	<path class="st15" d="M557.2,247.4c0,0-2.3,1.6-3.4,3.7s-7,17.6-6.2,20.8c0.5,2.2,19.2,1.4,19.2,1.4l0.2-3.8c0,0-11.8-1.3-11.8-2.3
		s3.5-7.4,3.5-7.4S560.6,251.9,557.2,247.4z"/>
	<path class="st3" d="M587.3,323c0,0,6.2,1.7,8.8,2.5c2.2,0.7,1.9,2.6-0.4,3.5c-2.3,0.9-4.3,0.6-4.9-0.1c-0.6-0.7-1.9-0.3-2.4,0
		s-5-0.3-5.3-1.2s0.1-4.5,0.1-4.5L587.3,323z"/>
	<path class="st3" d="M577.2,323.4c0,0,6.1,2.2,8.6,3.2c2.1,0.9,1.7,2.8-0.7,3.5s-4.3,0.2-4.9-0.5s-1.9-0.5-2.4-0.2
		s-4.9-0.7-5.1-1.6c-0.2-0.9,0.9-5.2,0.9-5.2L577.2,323.4z"/>
	<path class="st4" d="M590.9,287c-0.7-2.6-13.4-10.3-14.5-12.6h-10.3c-1,1.5-2.3,4.1-2.7,7.9c-0.7,6.5,5.4,4.3,11.4,4.5
		s8.4,3.9,8.6,5.5s-0.9,31.3-0.9,31.3h8.1C590.5,323.5,591.3,288.5,590.9,287z"/>
	<path class="st5" d="M585.1,323.5c0,0,2.7-35.4,2.1-36.3c-1.9-2.8-10.9-9.5-14-12.5l-7.1-0.3c-1,1.5-2.3,4.1-2.7,7.9
		c-0.7,6.5,5.4,4.3,11.4,4.5s8.4,3.9,8.6,5.5s-0.9,31.3-0.9,31.3L585.1,323.5z"/>
	<path class="st4" d="M585.7,287.8c-0.5-2.2-13.8-10.1-16.5-13.1l-10.9-0.8c-1.3,1.5-2.7,3.8-2.6,6.3c0.1,6.3,4.8,7.8,10.8,8
		c6.9,0.2,10.5,1.1,10.4,2.7c0,1.6-4.3,32.5-4.3,32.5l8,0.4C580.6,323.8,586,289.3,585.7,287.8z"/>
	<g>
		<g>
			<path class="st6" d="M643.3,238.6c0,0,1.8-3.1,2.5-4.8s3.3-7.5,4.2-6.9s-1.5,5.5-1.5,5.5s2.1-6.1,3.3-5.8s-2,6-2,6
				s2.5-5.4,3.2-4.8s0.1,1.7-2,5.7c0,0,1.9-3.4,2.6-2.6c0.7,0.8-1.6,3.9-2.4,4.6c-0.8,0.7-4.8,3.9-5.7,5.2
				C645.5,240.7,643.3,239.9,643.3,238.6z"/>
			<path class="st18" d="M647.1,234.6c0,0,2.8-1.6,3.6-1s0,1.3-2.9,2.2c0,0-1,1.3-1.7,1.4C646.1,237.2,645.3,235.4,647.1,234.6z"/>
		</g>
		<path class="st6" d="M588.8,235.9c0,0-1.1-2.2-1.1-2.8s0.3-1.3,0.3-2.2s1.2-2.9,0.9-3.4c-0.2-0.6-1-0.4-1.6,0.9
			c-0.7,1.4-0.5,2.2-1,1.8s-1.9-2.1-2.3-2.8c-0.4-0.7-1.8-2.1-2.2-1.9c-0.4,0.2-0.5,0.6,2,4c0,0-2.7-4.1-3.5-3.4
			c-0.6,0.5,2.1,3.5,2.5,4c0,0-2.5-3.1-3.2-2.4c-0.7,0.7,2.7,3.3,2.7,3.3s-2.5-2-2.9-1.4s1.1,1.9,2.6,2.7s1.8,1,2.2,1.6
			c0.4,0.5,1.3,2.7,1.3,2.7S587.8,237.3,588.8,235.9z"/>
		<path class="st7" d="M619.3,221.9l-5.2,0.8c0,0-0.3,9.6-4.4,10.4c0,0-1.5,15.8,4,14.5c5.4-1.3,8.3-15,8.3-15
			S617.3,231.2,619.3,221.9z"/>
		<path class="st6" d="M619.7,214.7c0,0-5.6-2.3-7.8-0.9s-2,6.2-2.4,8.4c-0.5,3.4,1,6.8,1.9,7.1s7.9-1.6,9-6.6
			S621,215.5,619.7,214.7z"/>
		<path class="st3" d="M611.3,319.8c0,0,0.8,4.6,0.2,5.7s-12.3,0.6-13-0.2c-0.7-0.8,0.5-2.1,1.1-2.4s7-3.1,7-3.1H611.3z"/>
		<path class="st3" d="M626.5,319.8h-4.1c0,0-0.3,3.4,0,4.2s4.1,5.5,6.1,5.5c1.1,0,2.4,0,2.6-1c0.2-0.8-0.6-2.5-1.3-3.4
			C628.4,323.2,626.5,319.8,626.5,319.8z"/>
		<path class="st3" d="M618.7,223.4c0,0-2,1.1-3.3,1.2s-2.1-1.4-3.9-1c-1.8,0.4-2,0.5-2,0.5s-1,6.5,1.5,6.3s6.6-2.8,8.1-4.5
			c0,0,1.5,0,2.5-1.5s2.3-6.2,1.4-9c-0.9-2.8-4.7-3.9-6.3-2.6c0,0-1.2-1-3.5-0.9s-2.8,1.4-3.8,2.1c-1,0.7-2,0.7-2.3,0.1
			c0,0-0.7,1.2,0.5,3.2s2.7,1.7,4.6,1.2s4.4-2.4,4.4-2.4s-0.1,4,0.9,5.5c0,0,0.4,0.2,0.5,0s0-2.2,1.2-1.8
			C620.5,220.3,619.7,222.6,618.7,223.4z"/>
		<path class="st2" d="M611.1,225.4c0,0,1.5,0.5,3.1,0.1c0,0-0.9,1.2-1.9,1C611.2,226.3,611.1,225.4,611.1,225.4z"/>
		<path class="st2" d="M620.5,231.1l-4.8,2.6l-3.7-2.2c0,0-1.9,5.7-1.3,12.1c0.5,6.4,1.6,11.1,5.9,5.1
			C620.9,242.6,622.6,233.1,620.5,231.1z"/>
		<path class="st2" d="M620.5,231.1l-4.8,2.6l-3.7-2.2c0,0-1.9,5.7-1.3,12.1c0.5,6.4,1.6,11.1,5.9,5.1
			C620.9,242.6,622.6,233.1,620.5,231.1z"/>
		<path class="st3" d="M614.8,236.6c0,0-2.6,13.9-2.3,14.2c0.1-0.2,1.7,3.8,2.6,0c0.7-2.9,0.8-13.8,0.9-14c0,0,1.3-1.4,2.1-2.1
			c0.5-0.5,1-0.9,1.5-1.4c0.1-0.2,0.2-0.5,0.3-0.7c-0.1,0.2-0.1,0.3-0.2,0.5c0.3-0.6,0.6-1.1,1-1.6c-0.1-0.1-0.2-0.2-0.2-0.3
			l-4.8,2.6l-3.7-2.2c0,0-0.1,0.3-0.3,0.9c0.4,0.5,0.7,1.1,1,1.6C613.2,234.6,614.8,236.6,614.8,236.6z"/>
		<path class="st3" d="M605,256.9l14.7-0.3c0,0,2.2,3.6,2.7,14.2c0.3,7.2,0.6,9.2,1.3,18.8c0.5,6.5,2.8,31.3,2.8,31.3h-7.8
			c0,0-3.3-28.3-3.5-29.9c-0.1-0.5-2-15.5-2-15.5s0.3,13.6,0.3,15.1s0.3,29.5,0.3,29.5h-8.2c0,0-0.9-23.7-1-29.1
			C604.6,282.2,603.9,259.8,605,256.9z"/>
		<path class="st9" d="M612,231.4c0,0-5.2,1-7.2,1.7c0,0,0.6,11.9-1.4,14.9l-0.9,26c0,0,11.3-0.1,11.7-14.2s0.3-14.7,0.3-14.7
			L612,231.4z"/>
		<g>
			<path class="st3" d="M613.6,246.7c0,0.2-0.2,0.4-0.4,0.4s-0.4-0.2-0.4-0.4s0.2-0.4,0.4-0.4C613.4,246.2,613.6,246.4,613.6,246.7z
				"/>
			<path class="st3" d="M613.3,250.9c0,0.2-0.2,0.4-0.4,0.4s-0.4-0.2-0.4-0.4s0.2-0.4,0.4-0.4S613.3,250.7,613.3,250.9z"/>
			<path class="st3" d="M613,255.2c0,0.2-0.2,0.4-0.4,0.4s-0.4-0.2-0.4-0.4s0.2-0.4,0.4-0.4S613,254.9,613,255.2z"/>
			<path class="st3" d="M612.8,259.5c0,0.2-0.2,0.4-0.4,0.4s-0.4-0.2-0.4-0.4s0.2-0.4,0.4-0.4S612.8,259.2,612.8,259.5z"/>
		</g>
		<path class="st9" d="M627.5,234.4l-7-3.3l-5.9,14l-1.3,16.3c0,0,0.2,14.4,12.4,12.6l-1-26.3C624.7,247.6,624.6,238,627.5,234.4z"
			/>
		<path class="st9" d="M647.2,240.2l-4.3-3.1c0,0-7.9,12.5-8.3,12.1c-0.5-0.4-4.2-13.5-7.1-14.8c0,0-1.4,1-2.3,4.1
			c-0.6,2.1-0.7,5.6-0.5,9c0,0,7.4,11,10.1,10.7C637.4,257.7,647.2,240.2,647.2,240.2z"/>
		<path class="st9" d="M589,234.4l-4.8,1.9c0,0,6.6,23.9,10.4,21.8c3.8-2.1,8.9-9.5,8.9-9.5s1.4-2.3,2-5.9c0.5-3.2,0.2-7.6-0.6-9.5
			c0,0-3.4,2-6.2,7.7c-2.8,5.6-3.7,7.2-3.9,6.9C594.5,247.3,589,234.4,589,234.4z"/>
		<path class="st19" d="M611.8,232.2c0,0.1,1.2,4.6,1.2,4.6l2.7-2l2.3,2.1l2.4-5.1l-0.4-0.5l-2.9,1.6l-1.4,1.3l-3.2-2.4l-0.2-0.1
			L611.8,232.2z"/>
		<polygon class="st2" points="615.7,233.3 612.4,230.8 611.6,231.5 612.9,236.1 615.7,233.9 618.3,236.3 620.7,231.2 619.5,229.9 
					"/>
	</g>
	<g>
		<rect x="580.3" y="272.1" class="st20" width="24.9" height="1.5"/>
		<path class="st3" d="M605.5,272.8H580c-0.8,0-1.5-0.7-1.5-1.5v-17.6c0-0.8,0.7-1.5,1.5-1.5h25.5c0.8,0,1.5,0.7,1.5,1.5v17.6
			C607,272.2,606.3,272.8,605.5,272.8z"/>
		<path class="st21" d="M579.3,271.4v-17.6c0-0.8,0.7-1.5,1.5-1.5h-1.3c-0.8,0-1.5,0.7-1.5,1.5v17.6c0,0.8,0.7,1.5,1.5,1.5h1.3
			C580,272.8,579.3,272.2,579.3,271.4z"/>
		<path class="st2" d="M594.2,262.6c0,0.8-0.6,1.4-1.4,1.4s-1.4-0.6-1.4-1.4s0.6-1.4,1.4-1.4C593.5,261.1,594.2,261.8,594.2,262.6z"
			/>
	</g>
	<g>
		<rect x="620.9" y="270.9" class="st3" width="18.7" height="2.7"/>
		<polygon class="st3" points="615.8,253.5 621.9,272.4 622.8,272 616.8,253.2 		"/>
	</g>
	<path class="st3" d="M649.4,319.4c0,0-5,2.5-7.7,3.6c-2.2,0.9-1.8,2.9,0.8,3.7s4.6,0.3,5.2-0.5c0.6-0.8,2-0.5,2.5-0.2
		s4.8-0.7,5-1.7s-0.8-5.3-0.8-5.3L649.4,319.4z"/>
	<path class="st9" d="M675.4,273.1l-8.5,0.1c0,0-20.7,7.7-23.4,9.8s4.5,37.4,4.5,37.4l7-0.7c0,0-1.7-31.7-0.3-33
		c1.3-1.4,23.3-3.4,24.7-3.8C680.7,282.5,678.8,277.6,675.4,273.1z"/>
	<path class="st10" d="M675.4,273.1l-8.5,0.1c0,0-20.7,7.7-23.4,9.8s4.5,37.4,4.5,37.4l7-0.7c0,0-1.7-31.7-0.3-33
		c1.3-1.4,23.3-3.4,24.7-3.8C680.7,282.5,678.8,277.6,675.4,273.1z"/>
	<g>
		<polygon class="st15" points="692.6,254.2 684,288.6 680.4,287.7 687.8,253 		"/>
		<g>
			<rect x="653.3" y="289.6" class="st15" width="1.4" height="37.6"/>
			<rect x="679.7" y="289.6" class="st15" width="1.4" height="37.6"/>
		</g>
		<rect x="649.5" y="286.2" class="st3" width="35.5" height="4.9"/>
	</g>
	<path class="st7" d="M673.1,237l-4.9,1c0,0,1.4,6,0,9.3c0,0,2.7,1,7.1-2.3C675.4,245,672.6,242.6,673.1,237z"/>
	<path class="st6" d="M673.9,230.1c0,0-5.4-2-6.9-1.3s-3.2,1.8-2.9,2.9c0.3,1.1,0.5,4.3,0.1,5.4s-1,1.7-0.8,2.1s1,0.1,1.2,0.5
		s1.5,3.3,2.2,3.7s4.9-1.1,6.9-5.6C675.7,233.2,675.1,230.8,673.9,230.1z"/>
	<path class="st3" d="M643.3,320c0,0-6.5,2.3-9.2,3.4c-2.2,0.9-1.8,2.9,0.7,3.7s4.6,0.3,5.2-0.5c0.6-0.8,2-0.5,2.5-0.2
		s4.8-0.7,5-1.6s-0.3-3.8-0.3-3.8L643.3,320z"/>
	<path class="st3" d="M670.7,228.4c0,0,1.8-2.1,3.9-0.9c2.1,1.2,1.3,3.1,1.7,4c1,2,0.8,3.6-0.2,5.4c-1.1,2-0.5,3.3-2.3,3.5
		s-2.5-0.3-2.5-0.3s0.7-1.4,0.7-2.9c0,0,1.6-0.9,1.4-2.3s-1.9-1.6-2.4-0.1c-0.5,1.4,0.3,2.4-0.7,3.1c0,0-0.6,0.2-0.6-1.4
		s0.3-2.9,0.3-2.9s-3.8,2-6.7,0s-0.9-5.2,1.2-5.9C668,226.4,670.7,228.4,670.7,228.4z"/>
	<path class="st9" d="M677.7,271.8l-9.5,1.9c0,0-21.5,7.8-24.2,9.8s-3.2,36.9-3.2,36.9l7.1,0.7c0,0,3-33.1,4.7-34.1
		c1.4-0.8,24.6-0.8,26-0.8C680.7,286.2,682.5,276.6,677.7,271.8z"/>
	<path class="st6" d="M638.4,269.4c0,0-1.4,0.2-1.7,0.2s-4.2-2.4-4.7-2.1c-0.4,0.3-4.5,3.2-4.3,3.8c0.1,0.6,1.2,0.2,3.4-1.6
		c0,0-2.8,2.1-2.3,2.6s3-1.8,3-1.8s-2.6,2-2,2.4c0.6,0.5,2.9-1.9,2.9-1.9s-1.8,1.8-1.5,2.1c0.2,0.3,1.4-0.2,2.6-1.4
		c0,0,0.2-0.1,0.9,0.2c0.6,0.4,4.6-0.3,4.6-0.3L638.4,269.4z"/>
	<path class="st4" d="M637.4,268.2l1.2,4.5c0,0,19.6-4.4,21.6-5.9s13.8-14.3,12.1-17.9c-1.7-3.6-4-2.7-5.4-0.7s-8.2,10.7-9.2,11.7
		C656.8,261,637.4,268.2,637.4,268.2z"/>
	<path class="st6" d="M640.7,271.5c0,0-1.5,0.2-1.8,0.2s-4.4-2.4-4.9-2.1s-4.7,3.2-4.6,3.8c0.1,0.6,1.3,0.2,3.5-1.6
		c0,0-3,2.1-2.4,2.6s3.2-1.8,3.2-1.8s-2.7,2-2.1,2.4c0.6,0.5,3-1.9,3-1.9s-1.9,1.8-1.6,2.1s1.4-0.2,2.7-1.4c0,0,0.2-0.1,0.9,0.2
		c0.7,0.4,4.8-0.3,4.8-0.3L640.7,271.5z"/>
	<path class="st4" d="M675,244.6c0,0-4.4,2.2-6.9,2.1c0,0-4,8.4-4.3,10.7c-0.3,2.3,0.5,17,0.5,17s9.7,2.1,15.4-0.8
		c0,0-1.5-9.6-0.9-14.4C679.5,254.4,679,248.2,675,244.6z"/>
	<path class="st5" d="M673.1,260.3c1-2.2,4.8-5.8,2.9-8.4c-1.5-2-2.6-2.2-4.3-0.2c-1.6,1.8-3,3.8-4.8,5.3c-0.9,0.8-2,1.5-3,2.2
		c0,4.6,0.5,15.1,0.5,15.1s3.2,0.7,6.9,0.7C669.2,270.7,671.1,265,673.1,260.3z"/>
	<path class="st4" d="M639.6,270.3l1.3,4.5c0,0,20.6-4.4,22.7-5.9s14.5-14.3,12.7-17.9c-1.8-3.6-4.2-2.7-5.7-0.7S662,261,661,262
		S639.6,270.3,639.6,270.3z"/>
	<g>
		<path class="st6" d="M541.8,246.8c0,0,1.4-2.8,1.8-4.2s2.3-6.6,3.1-6.1s-0.9,4.7-0.9,4.7s1.4-5.3,2.4-5.1s-1.2,5.2-1.2,5.2
			s1.8-4.7,2.4-4.3c0.6,0.4,0.2,1.4-1.4,4.9c0,0,1.4-3,2-2.4s-1.1,3.4-1.7,4.1c-0.7,0.7-3.8,3.6-4.5,4.8
			C543.8,248.5,542,248,541.8,246.8z"/>
		<path class="st18" d="M544.8,243.2c0,0,2.3-1.5,3-1.1c0.7,0.5,0.1,1.1-2.3,2.1c0,0-0.8,1.2-1.3,1.3
			C544.1,245.5,543.3,244,544.8,243.2z"/>
	</g>
	<path class="st4" d="M541.6,245.4c0,0-8,13.5-8.5,13.4c-0.4-0.1-12.1-3.6-16.1-6.6c-1.1-0.9-1.1,8.4,0,9s18.2,3.6,18.9,3.1
		c0.8-0.5,9.4-16.7,9.4-16.7L541.6,245.4z"/>
	<path class="st5" d="M537.1,261.9c-5.8,3.7-19.4-7-21-7.4c-0.2,2.5,0.1,6.3,0.9,6.7c1.1,0.6,18.2,3.6,18.9,3.1
		c0.2-0.1,0.9-1.3,1.8-2.9C537.6,261.6,537.4,261.8,537.1,261.9z"/>
	<path class="st7" d="M517.2,246.4c-0.5-0.1-3-5.3-4-6.3c-0.5,3.5-2.6,11.9-2.6,11.9c2.6,2.8,7.8,1.1,7.8,1.1
		C517.4,251.2,517,247.6,517.2,246.4z"/>
	<path class="st6" d="M515.8,233.5c0,0,5,1.1,6,2.6s1,5.3,1.5,6.3c0.3,0.6,0.6,1.1,0.8,1.5c0.1,0.3-0.2,0.5-0.7,0.7
		c-0.2,0.1-0.4,0.3-0.5,0.5c-0.3,0.9-1.1,3.3-2,3.6c-1,0.4-6.2,0.2-7.7-4.2C511.7,239.9,512.5,232.5,515.8,233.5z"/>
	<path class="st6" d="M536.3,319.9l-3.4-0.6c0,0-0.2,3.2-0.5,4c0,0,3.8,1.8,7.7,0.4c0,0-2.5-1.1-3.1-1.8
		C536.4,321,536.3,319.9,536.3,319.9z"/>
	<path class="st3" d="M532.8,321.7c0,0,2.6,1.8,6.6,1.5c0,0,4.9,2.6,5.2,3.2c0.4,0.9-1.7,1-5,0.9c-2.8-0.1-2.6-0.3-3.2-0.9
		c-0.6-0.6-1.3-1.2-1.3-1.2s-0.3,0.4-0.5,2l-1.3-0.2c0,0,0.2-1.6-0.5-2.4C532.3,324.1,531.8,322.8,532.8,321.7z"/>
	<path class="st6" d="M522.7,319l-2.6-0.7c0,0-1.5,2.5-1.9,3.2c0,0,3.3,2.6,7.4,2.1c0,0-2.2-1.6-2.7-2.5
		C522.5,320.2,522.7,319,522.7,319z"/>
	<path class="st3" d="M518.5,320.9c0,0,2.4,2,6.4,2.1c0,0,4.6,3,4.8,3.7c0.3,1-1.8,0.8-5.1,0.4c-2.8-0.4-2.6-0.5-3.1-1.1
		s-1.2-1.3-1.2-1.3s-0.3,0.3-0.7,1.9l-1.2-0.3c0,0,0.3-1.5-0.2-2.4C517.8,323.2,517.4,321.8,518.5,320.9z"/>
	<path class="st13" d="M510.9,272.3l6.7,4.7c0,0,21.7,4.2,24.4,6.2s-17.5,38.6-17.5,38.6l-6.3-2.1c0,0,15.1-32.4,13.8-33.8
		c-1.4-1.4-23.7-3.4-25.1-3.8C505.5,281.8,507.4,276.8,510.9,272.3z"/>
	<path class="st12" d="M510.9,272.3l6.7,4.7c0,0,21.7,4.2,24.4,6.2s-17.5,38.6-17.5,38.6l-6.3-2.1c0,0,15.1-32.4,13.8-33.8
		c-1.4-1.4-23.7-3.4-25.1-3.8C505.5,281.8,507.4,276.8,510.9,272.3z"/>
	<path class="st13" d="M508.8,274.4l8.7,0.7c0,0,22.4,5.6,25.1,7.7c2.8,2.1-4,38.6-4,38.6l-6.8-1.7c0,0,3.9-32.4,2.2-33.4
		c-1.5-0.9-24.9-0.9-26.4-0.9C505.5,285.5,504,279.3,508.8,274.4z"/>
	<path class="st4" d="M511.3,250.2c0,0,3.6,1.6,6.9,2.6c0,0,4.1,8,4.3,10.3c0.3,2.2,2,14.5,2,14.5s-12.6,3.6-18.4,0.8
		c0,0,1.8-8.7,1.1-13.5C506.7,260.2,507.2,253.8,511.3,250.2z"/>
	<path class="st5" d="M512.8,263.9c0,4,2.6,6,5.3,8.6c1.6,1.5,3.1,3.5,4,5.8c1.4-0.4,2.5-0.6,2.5-0.6s-1-6.6-1.6-11
		c-2.7-1.2-4.1-3.8-5-6.5c-0.5-1.6-0.8-2.6-1.8-3.8c-3,0.1-3.1,3.5-3.3,6.8C512.8,263.5,512.8,263.7,512.8,263.9z"/>
	<g>
		<polygon class="st15" points="493.1,253.1 501.8,288 505.4,287.1 497.9,251.9 		"/>
		<g>
			<rect x="531.5" y="289" class="st15" width="1.5" height="38.1"/>
			<rect x="504.7" y="289" class="st15" width="1.5" height="38.1"/>
		</g>
		<rect x="500.8" y="285.5" class="st3" width="36" height="5"/>
	</g>
	<path class="st3" d="M522.4,237.7c1.6-0.6,0.9-3.2-0.2-3.9c-2-1.4-4.5-2.4-6.9-2.3c-3,0.1-5.6,2.4-7.4,4.6c-1.2,1.6-1.2,3.3-2.1,5
		c-0.8,1.6-2.6,2.4-3.6,3.8c-1,1.3-1,3.1-0.6,4.6c0.3,1.2,0.6,2.3,0.4,3.6c-0.2,1.6-1.5,2.7-1.9,4.2c-0.4,1.4-0.2,2.9-0.1,4.3
		c0.2,1.8,1,3.4,2.6,4.4c3.1,2.1,7.3-0.4,7.8-3.9c0.2-1.6-0.2-2.9-0.4-4.4c-0.2-1.9,0.5-3,2.1-4c1.4-0.9,2-1.4,1.9-3.1
		c-0.1-1.1-0.2-2.3,0-3.5c0.2-1.3,0.8-1.6-0.2-2.5c-0.7-0.7-1.3-1.4-0.8-2.4c0.5-0.8,1.2-1.1,1.9-0.3c0.2,0.2,1,1.9,1.2,0.9
		c0.1-0.3-0.3-0.8-0.3-1.1c0-0.5,0-0.8,0.3-1.1c0.5-0.5,1.3-0.8,1.8-1.4c0.7-0.7,0.7-1.6,1.7-1.9c0.5-0.2,1-0.2,1.5-0.1
		C521.3,237.1,522.2,237.8,522.4,237.7z"/>
	<g>
		<rect x="547.2" y="270.9" class="st3" width="18.7" height="2.7"/>
		<polygon class="st3" points="571,253.5 564.9,272.4 563.9,272 570,253.2 		"/>
	</g>
	<g>
		<rect x="538.6" y="273.6" class="st16" width="1.2" height="55.1"/>
		<rect x="662.4" y="273.6" class="st16" width="1.2" height="55.1"/>
		<rect x="538.6" y="273.6" class="st16" width="125" height="1.5"/>
	</g>
	<path class="st6" d="M544.9,270c0,0,1.6-0.1,2-0.2c0.3-0.1,4.2-3.4,4.8-3.1c0.5,0.2,5.6,2.5,5.6,3.1s-1.3,0.5-4.1-1
		c0,0,3.6,1.6,3.1,2.3c-0.5,0.7-3.7-1.3-3.7-1.3s3.2,1.5,2.7,2.2c-0.6,0.6-3.6-1.4-3.6-1.4s2.3,1.5,2.1,1.9s-1.5,0.1-3.1-0.9
		c0,0-0.3-0.1-0.9,0.4c-0.6,0.5-5.2,0.6-5.2,0.6L544.9,270z"/>
	<path class="st4" d="M546,269.1v4.3c0,0-15.2,0.9-19.4-0.5s-13.2-12.9-14-14.8c-0.9-2.3,2.6-7.9,6.1-2.8s9.8,12,10.1,12.2
		C529.1,267.7,546,269.1,546,269.1z"/>
</g>
<g>
	<g>
		<path class="st3" d="M770.2,248.6c0,0-9.4-0.7-12.3-5.5c-2.9-4.8,0-8.1,2.4-9.6s5.9-3.9,6-6.1s0-7.6,5.6-9.4
			c1.9-0.6,4.1-0.5,5.9,0.3c0.9,0.4,1.7,1.1,2.3,1.9c0.6,0.8,0.8,1.4,1,2.4c0.2,0.8,0.2,1.6,0.1,2.4c0,1.3-0.3,2.6-0.4,3.9
			c-0.1,1.1-0.2,2.2-0.2,3.3c0,0.8,0.1,1.4,0.4,2.2c0.2,0.7,0.6,1.4,0.9,2.1c0.3,0.7,0.8,2.1,1,2.8c0.3,1.2,0.1,1.9,0,3.1
			c-0.3,3.1-2.6,5.1-5.5,5.8C775.2,248.7,772.6,248.8,770.2,248.6z"/>
		<path class="st7" d="M776.9,230.9c-1.7-0.2-3-1-3.8-2.1c0.2,1.2,0.3,3.9-1.7,6.8c0,0,0,6.2,4,5.6s3.5-5.3,3.5-5.3
			S776.6,234.4,776.9,230.9z"/>
		<path class="st6" d="M772.7,221c0,0,3.8-1.6,5.3-0.8s2.1,3,2.5,5.2c0.5,2.2-0.7,6.5-2.8,7.2c-2.5,0.8-4.7-1.2-5.5-3.8
			c0,0-2.2-0.5-2-3.4C770.4,222.4,771.1,220.7,772.7,221z"/>
		<path class="st4" d="M778.1,235.2c0,0-1.7,2.9-2.5,3.5s-4.3-4-4.3-4s-4,2.4-7.3,3.3c0,0-1.2,12.2-1.9,15c0,0-1.3,15.4-1.3,17.4
			h20.7c-0.6-10.4,3.5-19.5,3.5-19.5s-1.2-9.4-0.5-11.7C784.4,239.2,779.8,236.5,778.1,235.2z"/>
		<path class="st5" d="M785,250.9c0,0-0.3-2.3-0.5-4.9c-1.4,2.8-2.2,5.8-3.4,8.7c-1.3,3.5-5.2,10.2-10,8.6c-3.8-1.2-5-5.6-5.6-9.1
			c-0.3-1.9-0.6-3.9-0.8-5.8c-0.2-1.6-0.2-4.2-1.1-5.6c-0.5,0.4-0.7,2-0.8,2.7c-0.1,1-0.1,2-0.2,3.1c0,0.5,0,1-0.1,1.6
			c0,0.4-0.1,0.9-0.2,1.3c0,0.3-0.1,0.6-0.1,0.9v0.1c0,0.1,0,0.2-0.1,0.3c0,0-1.3,15.4-1.3,17.5h20.7C780.8,260,785,250.9,785,250.9
			z"/>
		<polygon class="st2" points="771.5,234.4 769.3,235.8 772.7,241.4 775.6,238.9 778.5,241.2 779.8,236.2 777.8,234.8 775.7,238.3 
					"/>
		<path class="st3" d="M778.4,221.4c0,0-0.7,2.6-3,3.2c-1,0.3-1.6,1.2-1.5,2.2c0,0.4-1,0.5-1.1,0.2s0.2-1.9-1.1-2.2
			s-1.4,1.7-0.2,2.9c0,0,2.2,2.4,1.2,5s-3.2,5.2-7.4,5.6c-4.2,0.5-6,6.4-6,6.4s-4.2-5,0.5-8.6s8-5.7,8-8c0-2.4,1.5-8.8,5.5-9.2
			C777.4,218.5,778.4,221.4,778.4,221.4z"/>
		<path class="st3" d="M781.1,225.1c0,0-1.8,0.2-3.6-2.4c-1.9-2.6-1.9-4.7-1.9-4.7S782.3,219.1,781.1,225.1z"/>
		<g>
			<g>
				<rect x="760.7" y="282.5" class="st15" width="1.7" height="44.3"/>
				<rect x="791.8" y="282.5" class="st15" width="1.7" height="44.3"/>
			</g>
			<g>
				<rect x="812.3" y="282.5" class="st15" width="1.7" height="44.3"/>
				<rect x="843.4" y="282.5" class="st15" width="1.7" height="44.3"/>
			</g>
			<rect x="756.1" y="279.8" class="st3" width="41.8" height="4.3"/>
		</g>
		<path class="st3" d="M783.4,309.1c0,0-3.8,4.2-3.7,4.7s8.8,12,10,11.9c1.3-0.1,1.3-2.3,1-3.1s-4-12.2-4-12.2L783.4,309.1z"/>
		<path class="st3" d="M772.7,309.2c0,0-4.2,3.9-4.1,4.4s7.7,12.7,9,12.7s1.5-2.1,1.3-3s-2.9-12.5-2.9-12.5L772.7,309.2z"/>
		<path class="st7" d="M789.5,282.9c-1.5,7-6.5,26.5-6.5,26.5l4.4,2.6c0,0,7.5-19.1,9.9-29.2h-7.8L789.5,282.9L789.5,282.9z"/>
		<path class="st6" d="M780.7,282.9c-2.2,7.2-8.4,26.7-8.4,26.7l3.9,2.7c0,0,10.4-19.4,14.3-29.4L780.7,282.9L780.7,282.9z"/>
		<path class="st9" d="M796.2,275.8c-3.2-1.8-6.6-3.5-10.2-4.4l0,0c-1.4-0.4-4-3.7-4.3-6.5c-2.1,0.8-4.6,0.8-7.1,0.9
			c-3.5,0.1-7.6,0.6-11-0.2c-0.8-0.2-1.5-0.5-2.1-0.8c0,0-3.8,3.5-3.8,9.8c0,3.2,0.9,4.6,4.4,5.7c1.9,0.6,11.7-0.3,14.4,0.8
			c2.4,1,2,3.6,1.6,5.4c11.6,1.7,17.6,0.5,19.7,0C798.4,284.1,799.9,277.9,796.2,275.8z"/>
		<path class="st3" d="M828,264.7c0,0-9.8,0-13.3-2.4s-4.1-11.5,1-15.2s6.1-4.9,6.3-7.4s0.2-8.1,6.7-8.1c6.4,0,5.8,5.2,6.3,8.5
			c0.3,2.3,3.5,5.7,6.3,7.9C844.9,250.8,848.9,267,828,264.7z"/>
		<path class="st7" d="M831,241.5c-0.5,0.2-1.1,0.3-1.7,0.3c-1.2,0-2.1-0.3-2.9-0.8c-0.3,1.9,0.6,4-1.2,4.5c0,0,0.1,8,3.3,8
			s3.6-8,3.6-8S830.5,245.1,831,241.5z"/>
		<path class="st6" d="M833,239.5c-0.3-0.7-1.2-0.4-1.2-0.4c0.2-1.9,0.2-5,0.2-5l-3.3-0.4l-3.3,0.4c0,0,0,3,0.2,5
			c0,0-0.8-0.4-1.2,0.4c-0.6,1.2,0.8,2,0.8,2s0.9,4.1,3.6,4.3c2.6-0.2,3.6-4.3,3.6-4.3C832.2,241.5,833.6,240.7,833,239.5z"/>
		<g>
			<path class="st3" d="M832.5,234.1c0,0-1.8,4.5-6.6,4.2c0,0,0.2,0.8-0.1,1.5c0,0-0.7-1.9-1.4-1.5c-0.8,0.4-1,1.1-1,1.1
				s-0.7-5.4,2.8-6.6C829.5,231.7,832.5,234.1,832.5,234.1z"/>
			<path class="st3" d="M830.9,233.7c0,0.2-0.1,0.5-0.1,0.8c0,0.5,0,1.1,0,1.6c0.7,0.8,1,2.2,0.9,2.5c0,0.3,0,0.8,0.2,1.3
				c0,0,0.7-1.9,1.4-1.5c0.8,0.4,1,1.1,1,1.1S834.1,233.6,830.9,233.7z"/>
		</g>
		<path class="st15" d="M838,258.1c-1-2.8-0.5-10.4-0.5-10.4c-1.2-0.4-5.9-2.6-5.9-2.6l-3,7.3l-3.2-7.3c0,0-3.8,1.8-5,2.2
			c0,0-0.2,7.9-1.2,10.7c0,0,3,4.8,0,15.7h9.4h9.4C835,262.9,838,258.1,838,258.1z"/>
		<path class="st17" d="M838,258.1c-0.2-0.7-0.3-3.2-0.4-4.4c-0.5,1.2-1,3.8-1.4,5c-1.5,4-3.2,5.6-7.7,5.7c-3.6,0.1-6.9-5.7-7.3-6.8
			c-0.4-1.2-1-2.4-1.4-3.6c-0.1,1.6-0.2,3.2-0.5,4.1c0,0,3,4.8,0,15.7H838C835,262.9,838,258.1,838,258.1z"/>
		<path class="st6" d="M837.3,266.1c0,0-1.6,0.8-2.1,0.7c-0.6-0.2-0.8-0.5-1.9-0.1s-1.4,0.5-2,0.9c-0.5,0.3-1.6,0.9-1.3,1.5
			s1.5-0.2,1.6-0.3c0.1,0,0.5-0.2,0.5-0.2s-1.3,0.6-1.1,1s0.9,0.4,1.3,0.1c0.4-0.2,0.8-0.5,0.8-0.5s-0.9,0.6-0.7,0.8
			c0.2,0.2,0.8,0.3,1.2,0s0.7-0.5,0.7-0.5s-0.8,0.5-0.1,0.8s1.3-0.5,1.7-0.8s0.9-0.9,1.1-1c0.2-0.1,1.9-0.7,1.9-0.7L837.3,266.1z"/>
		<path class="st3" d="M830,269.2l-4.6-7.5c0,0-1.4-0.7-1.3,0.9l5.5,7C829.6,269.6,831.2,271.4,830,269.2z"/>
		<path class="st6" d="M819.7,266.1c0,0,1.6,0.9,1.9,0.8c0.2-0.1,3.7-2.1,4.4-1.7s1.2,1.2,1.5,1.6c0.3,0.5,1.5,1.9,1,2.4
			s-1.3-1.1-1.6-1.4s-1.2-1.3-1.7-1.2c0,0,1,0.5,1.4,1.1s1.5,1.5,1.1,2.1s-1.7-1.2-1.8-1.3s-1-0.8-1.4-0.9c0,0,1.1,0.8,1.2,0.9
			c0.1,0.1,1.4,1.1,1.2,1.5c-0.2,0.3-0.6,0.5-1.6-0.6c-0.4-0.4-1.2-0.8-1.2-0.8s0.9,0.5,1.1,0.7s0.7,0.7,0.3,0.9
			c-0.4,0.1-0.9-0.2-1.4-0.5c-0.5-0.4-1.2-0.5-1.8-0.4s-3.6-0.9-3.6-0.9L819.7,266.1z"/>
		<path class="st6" d="M827.7,265.4c0,0,1.3,0.4,1.5,1s-0.2,0.9-0.5,0.7L827.7,265.4z"/>
		<path class="st15" d="M820.5,247.4c-1.1,0.3-3.7,1.3-6.1,7.9c-2.2,6-3.1,10.9-2.9,12.4c0.3,2.5,10,2.4,10,2.4l0.7-3.9
			c0,0-4.4-1.4-4.2-2c0.1-0.7,1.4-3.4,1.9-5C819.9,259,821.2,247.2,820.5,247.4z"/>
		<path class="st15" d="M837.3,247.7c0.8,0.1,3.6,1.4,6.1,7.6c2.4,5.9,3.1,10.9,2.9,12.4c-0.3,2.5-10,2.4-10,2.4l-0.7-3.9
			c0,0,4.4-1.4,4.2-2c-0.1-0.7-1.4-3.4-1.9-5C837.9,259,836.5,247.6,837.3,247.7z"/>
		<path class="st6" d="M806.9,264.3l-1.2,2.2c0,0,1.8,1.1,2.2,1.5s1,1.9,2.9,2.3s2.2,0.8,2.7,0.3s-0.8-1.2-1.6-1.4
			c-0.8-0.2-1.4-0.3-1.3-0.5c0.1-0.2,0.8-0.2,2.2,0s3.2,0.9,3.6,0.6s-1.1-1.5-2.7-1.6c-1.2-0.1-1.8-0.3-1.8-0.3s1.6,0.1,2,0.2
			s2.7,0.8,3.2,0.3c0.5-0.4-1.5-1.2-3-1.4c-1.4-0.1-1.9,0-1.9,0s1.6-0.1,2.1-0.1s2,0.5,2.2,0.1s-1.1-0.9-2.2-1s-2.1,0.1-2.1,0.1
			s1.5-0.3,2-0.3s1.4,0.1,1.4-0.1s-0.3-0.7-2.2-0.7c-1,0-1.9,0.2-2.5,0.4C810,265.1,807.2,264.3,806.9,264.3z"/>
		<g>
			<rect x="743.5" y="269.8" class="st16" width="1.3" height="57.3"/>
			<rect x="856" y="269.8" class="st16" width="1.3" height="57.3"/>
			<rect x="741.2" y="269.8" class="st16" width="118.3" height="1.5"/>
		</g>
		<path class="st22" d="M840.8,283.2c0-0.2,0-0.4,0-0.5c0-5.5-2.9-9.1-2.9-9.1h-18.8c0,0-2.6,3.6-2.6,9.1c0,0.1,0,0.3,0,0.5H840.8z"
			/>
		<path class="st3" d="M823.2,310.1c0,0-4.7,5.6-5.3,6.9c-0.5,1.2,0.8,2.7,2.7,2.1c1.8-0.6,7.3-6.8,7-7.6s-1.5-1.6-1.5-1.6
			L823.2,310.1z"/>
		<g>
			<rect x="807.8" y="279.8" class="st3" width="41.3" height="4.3"/>
		</g>
		<path class="st6" d="M828.1,282.1c-0.2-2.2,0.2-6.2-3.4-6.2c-5.5,0-4.3,7.9-4.3,8.8c0.9,8.7,2.8,25.4,2.8,25.4l2.9-0.4
			C826.2,309.7,828.2,283.1,828.1,282.1z"/>
		<path class="st3" d="M834.2,310.1c0,0,4.7,5.6,5.3,6.9c0.5,1.2-0.8,2.7-2.7,2.1c-1.8-0.6-7.3-6.8-7-7.6s1.5-1.6,1.5-1.6
			L834.2,310.1z"/>
		<path class="st6" d="M829.3,282.1c0.2-2.2-0.2-6.2,3.4-6.2c5.5,0,4.3,7.9,4.3,8.8c-0.9,8.7-2.8,25.4-2.8,25.4l-2.9-0.4
			C831.2,309.7,829.2,283.1,829.3,282.1z"/>
		<path class="st4" d="M808,263.5l-1.2,4.5c0,0-16-2.9-17.5-5.1s-5.3-11.7-5.3-11.7s-2.2-7.2,0.3-12c0,0,2.4,0.9,3.7,4.6
			c0.9,2.4,5.1,12.6,6,13.6C795,258.5,808,263.5,808,263.5z"/>
		<path class="st6" d="M764.8,266.9c0,0,1.4,0.2,1.7,0.2s4.3-2.1,4.7-1.8s4.3,3.2,4.2,3.7s-1.2,0.2-3.3-1.6c0,0,2.7,2.1,2.2,2.5
			s-2.9-1.8-2.9-1.8s2.5,2,1.8,2.4c-0.6,0.4-2.8-1.9-2.8-1.9s1.7,1.7,1.4,2s-1.3-0.2-2.5-1.4c0,0-0.2-0.1-0.9,0.2
			c-0.7,0.3-4.5-0.5-4.5-0.5L764.8,266.9z"/>
		<path class="st4" d="M766.1,267l-1.3,2.9c0,0-12.1-5.2-12.5-10.1s7-21.3,12.2-21.2c0,0-0.9,11-2.3,14c0,0-2.9,4.6-2.9,5.7
			C759.4,259.4,766.1,267,766.1,267z"/>
	</g>
</g>
<g>
	<g>
		<path class="st4" d="M461.9,160.8h-54.6c-1.5,0-2.7-1.2-2.7-2.7v-35.2c0-1.5,1.2-2.7,2.7-2.7h54.6c1.5,0,2.7,1.2,2.7,2.7V158
			C464.7,159.5,463.4,160.8,461.9,160.8z"/>
		<rect x="407.3" y="123.3" class="st15" width="54.6" height="34.2"/>
	</g>
	<polygon class="st13" points="426.5,133.3 426.5,150.1 442.8,141.7 	"/>
</g>
<g>
	<path class="st7" d="M415,233.9h-2.7h-2.7c0,0-0.8,7.4-2.2,8.3c0,0-1.8,8.8,4.9,8.8c8.1,0,4.9-8.8,4.9-8.8
		C415.8,241.3,415,233.9,415,233.9z"/>
	<g>
		<path class="st6" d="M419.3,235.4c-0.8-0.9-1.7,0.4-1.7,0.4s1.2-4.9,0-7s-5.3-1-5.3-1s-4-1.1-5.3,1c-1.2,2.1,0,7,0,7
			s-0.9-1.3-1.7-0.4c-0.8,0.9,1.2,3.1,1.7,3.3c0,0,2.9,5.4,5.2,5.4s5.2-5.4,5.2-5.4C418.1,238.4,420.1,236.2,419.3,235.4z"/>
		<path class="st3" d="M411.4,229.7c0,0-3,0.5-3.4,2.2c-0.2,0.8,0,1.7,0.2,2.4c0.1,0.4,0.4,2.6,0.3,2.7s-0.3,0-0.4-0.1
			c-0.4-0.3-0.7-0.8-1-1.2c-0.6-0.9-1.4-0.7-1.6-0.2c0,0-0.7-8,2.7-8.3C411.4,226.9,411.4,229.7,411.4,229.7z"/>
		<path class="st3" d="M413.4,229.7c0,0,3,0.5,3.4,2.2c0.2,0.8,0,1.7-0.2,2.4c-0.1,0.4-0.4,2.6-0.3,2.7s0.3,0,0.4-0.1
			c0.4-0.3,0.7-0.8,1-1.2c0.6-0.9,1.4-0.7,1.6-0.2c0,0,0.7-8-2.7-8.3C413.4,226.9,413.4,229.7,413.4,229.7z"/>
		<path class="st3" d="M417.9,227.7c0,0,0.1-1.3-1.4-2.1s-4.5-1.2-6.9,0s-3.1,1.5-3.8,1.1c-0.7-0.4-0.2-0.8-0.2-0.8s-1.5,0-1.5,2.4
			c0.1,2.4,3,5.4,6.9,5.4C416.9,233.6,418.8,229.5,417.9,227.7z"/>
	</g>
	<path class="st15" d="M417.2,242.2c-0.3,7.4-4.9,6.7-4.9,6.7s-4.6,0.8-4.9-6.7c0,0-7.4,2.1-11,4.5c0,0,1.5,6.5,1.6,13.7l4.2,16.4
		l10.1,0.5l10.1-0.5l4.2-16.4c0.1-7.2,1.6-13.7,1.6-13.7C424.6,244.2,417.2,242.2,417.2,242.2z"/>
	<path class="st17" d="M425.8,250.9c-4.6,2.4-6.8,8.1-11.3,10.9c-4.6,2.9-7.9-2.9-10.1-5.9c-1.9-2.6-4.4-4.7-7.4-5.9
		c0.4,2.6,0.9,6.4,1,10.4l4.2,16.4l10.1,0.5l10.1-0.5l4.2-16.4c0-3.9,0.5-7.6,1-10.2C426.9,250.4,426.4,250.7,425.8,250.9z"/>
	<path class="st4" d="M430.9,283.4c0-5.8-7.1-9.5-7.1-9.5h-24c0,0-7.1,3.8-7.1,9.5c0,0.9,0.2,2.5,0.6,4.4h8
		c-0.3,0.6-0.6,1.1-0.9,1.6c-0.1,0.1-0.1,0.3-0.2,0.4c1.2,0,2.4,0,3.6,0c0.7,0,1.5,0,2.2,0c0.4,0,1.3,0.2,1.1-0.5
		c-0.2-0.9-0.7-1.4-0.2-2.4c0.4-0.8,1.6-1.4,2.5-1.4c0.2,0,0.4,0,0.6,0c1.2,0,2.5,0,3.8,0c0.5,0,0.9,0.1,1.4,0.2
		c0.4,0.1,0.9,0.1,1.2,0.5c0.3,0.5,0.3,1.3,0.4,1.8c0,0.2-0.1,1.7-0.1,1.7h8.1c-0.6-0.7-1-1.4-1.4-2h7.1
		C430.7,285.9,430.9,284.3,430.9,283.4z"/>
	<path class="st5" d="M430.9,283.4c0-5.8-7.1-9.5-7.1-9.5h-24c0,0-7.1,3.8-7.1,9.5c0,0.9,0.2,2.5,0.6,4.4h8
		c-0.3,0.6-0.6,1.1-0.9,1.6c-0.1,0.1-0.1,0.3-0.2,0.4h6.9c0.2,0-0.3-1-0.3-1.1c-0.2-0.4-0.2-0.8-0.1-1.2c0.1-0.4,0.5-0.8,0.8-1.1
		c1.1-1,2.7-1,4.1-1s2.9-0.1,4.1,0.7c0.2,0.2,0.4,0.3,0.6,0.5c0.8,1,0.4,2,0.3,3.1h8.1c-0.6-0.7-1-1.4-1.4-2h7.1
		C430.7,285.9,430.9,284.3,430.9,283.4z"/>
	<path class="st15" d="M396.3,246.6c0,0-9.1,19.8-8.5,22.4c0.2,0.7,11.3,7.4,16.5,6.4l2.1-0.4C406.5,275.1,398.7,246.5,396.3,246.6z
		"/>
	<path class="st15" d="M428.2,246.6c0,0,9.1,19.8,8.5,22.4c-0.2,0.7-11.3,7.4-16.5,6.4l-2.1-0.4C418,275.1,425.8,246.5,428.2,246.6z
		"/>
	<path class="st17" d="M399.9,253.6c0,0.9-0.1,1.9-0.4,2.9c-0.8,3.6-2.1,7.3-0.8,10.9c1,2.8,2.6,5.5,4.1,8.2c0.5,0,1,0,1.5-0.1
		l2.1-0.4C406.5,275.1,403,262,399.9,253.6z"/>
	<path class="st17" d="M423.2,275.4c0.7-1.7,1.1-3.4,1-5.3c-0.1-3.6-0.1-7.3-0.1-11c0-1.6,0.1-3.1,0.2-4.6c-3,8.4-6.3,20.5-6.3,20.5
		l2.1,0.4C421,275.6,422,275.6,423.2,275.4z"/>
	<path class="st3" d="M403.1,317.6c0,0-5.8,6.9-6.5,8.4s1,3.3,3.2,2.6c2.3-0.8,3.6-2.3,3.6-3.3s1.2-1.5,1.8-1.6s3.5-3.5,3.2-4.5
		c-0.3-0.9-1.8-2-1.8-2L403.1,317.6z"/>
	<path class="st3" d="M420.5,317.6c0,0,5.8,6.9,6.5,8.4s-1,3.3-3.2,2.6c-2.3-0.8-3.6-2.3-3.6-3.3s-1.2-1.5-1.8-1.6s-3.5-3.5-3.2-4.5
		c0.3-0.9,1.8-2,1.8-2L420.5,317.6z"/>
	<g>
		<rect x="389.2" y="288.8" class="st15" width="1.9" height="39.9"/>
		<rect x="432.9" y="288.8" class="st15" width="1.9" height="39.9"/>
		<rect x="385.5" y="285.6" class="st3" width="51.8" height="5.1"/>
	</g>
	<path class="st4" d="M405.2,283.1c-0.7-1.6-0.8-5.1-5.5-5.1c-9,0-6.9,7.2-6.7,8.3c1.4,10.7,7.9,32,7.9,32h9c0,0-3.3-26.2-3.8-30.2
		C406,287.5,405.6,284.2,405.2,283.1z"/>
	<path class="st4" d="M418.5,283.1c0.7-1.6,0.8-5.1,5.5-5.1c9,0,6.9,7.2,6.7,8.3c-1.4,10.7-7.9,32-7.9,32h-9c0,0,3.3-26.2,3.8-30.2
		C417.7,287.5,418,284.2,418.5,283.1z"/>
	<g>
		<rect x="399.1" y="275.3" class="st3" width="26.4" height="1.6"/>
		<path class="st3" d="M429.3,257h-34.1c0,0-1.8,0-1.5,2.1s4.6,16.4,5.5,16.4c1.6,0,13.1,0,13.1,0s11.5,0,13.1,0
			c0.8,0,5.2-14.4,5.5-16.4C431.2,257,429.3,257,429.3,257z"/>
		<path class="st2" d="M413.7,267c0,0.8-0.6,1.4-1.4,1.4s-1.4-0.6-1.4-1.4s0.6-1.4,1.4-1.4S413.7,266.2,413.7,267z"/>
	</g>
</g>
<g>
	<polygon class="st12" points="157,285.2 157,287.1 179.1,287.1 179.1,292.2 157,292.2 157,294.2 204.2,294.2 204.2,285.2 	"/>
	<path class="st4" d="M209.9,295.5L209.9,295.5h1.4v-1.4h-49.6v6.2h49.6V299h-1.4l0,0c-0.5,0-0.9-0.8-0.9-1.8
		C209.1,296.3,209.4,295.6,209.9,295.5z"/>
	<rect x="182.8" y="285.2" class="st13" width="21.4" height="9"/>
	<rect x="161.7" y="294.2" class="st5" width="27.4" height="6.2"/>
	<path class="st23" d="M157,287.1L157,287.1c0.7,0.1,1.2,1.2,1.2,2.5c0,1.4-0.5,2.5-1.2,2.5l0,0h23.8V287L157,287.1L157,287.1z"/>
	<polygon class="st13" points="209.5,266.4 209.5,264.4 187.4,264.4 187.4,259.3 209.5,259.3 209.5,257.4 162.3,257.4 162.3,266.4 	
		"/>
	<rect x="162.3" y="257.4" class="st12" width="21.4" height="9"/>
	<path class="st23" d="M209.5,264.4L209.5,264.4c-0.7-0.1-1.2-1.2-1.2-2.5c0-1.4,0.5-2.5,1.2-2.5l0,0h-23.8v5.1L209.5,264.4
		L209.5,264.4z"/>
	<polygon class="st13" points="215.1,325.5 215.1,324.1 182.7,324.1 182.7,320.5 215.1,320.5 215.1,319.2 146.1,319.2 146.1,325.5 	
		"/>
	<rect x="146.1" y="319.2" class="st12" width="31.3" height="6.3"/>
	<path class="st23" d="M215.1,324.1L215.1,324.1c-1,0-1.8-0.8-1.8-1.8s0.8-1.7,1.8-1.8l0,0h-34.8v3.6L215.1,324.1L215.1,324.1z"/>
	<polygon class="st24" points="149.8,300.4 149.8,302.3 173.5,302.3 173.5,307.4 149.8,307.4 149.8,309.4 200.4,309.4 200.4,300.4 	
		"/>
	<rect x="177.4" y="300.4" class="st25" width="29.1" height="9"/>
	<path class="st23" d="M149.8,302.3L149.8,302.3c0.7,0.1,1.3,1.2,1.3,2.5c0,1.4-0.6,2.5-1.3,2.5l0,0h53.4v-5.1L149.8,302.3
		L149.8,302.3z"/>
	<path class="st23" d="M177.5,302.3h-27.7l0,0c0.7,0.1,1.3,1.2,1.3,2.5c0,1.4-0.6,2.5-1.3,2.5l0,0h27.7V302.3z"/>
	<polygon class="st24" points="152.4,276.2 152.4,278.1 172.1,278.1 172.1,283.2 152.4,283.2 152.4,285.2 194.3,285.2 194.3,276.2 	
		"/>
	<rect x="175.3" y="276.2" class="st25" width="24.1" height="9"/>
	<path class="st23" d="M152.4,278.1L152.4,278.1c0.6,0.1,1.1,1.2,1.1,2.5c0,1.4-0.5,2.5-1.1,2.5l0,0h44.3V278L152.4,278.1
		L152.4,278.1z"/>
	<path class="st23" d="M175.4,278.1h-23l0,0c0.6,0.1,1.1,1.2,1.1,2.5c0,1.4-0.5,2.5-1.1,2.5l0,0h23V278.1z"/>
	<polygon class="st15" points="212.2,319.2 212.2,317 185.4,317 185.4,311.5 212.2,311.5 212.2,309.4 158.4,309.4 158.4,319.2 	"/>
	<rect x="152.2" y="309.4" class="st17" width="29.2" height="9.8"/>
	<path class="st23" d="M212.2,317L212.2,317c-0.7-0.1-1.3-1.3-1.3-2.8s0.6-2.7,1.3-2.8l0,0h-56.6v5.5L212.2,317L212.2,317z"/>
	<path class="st23" d="M181.4,317h30.8l0,0c-0.7-0.1-1.3-1.3-1.3-2.8s0.6-2.7,1.3-2.8l0,0h-30.8V317L181.4,317z"/>
	<polygon class="st15" points="203.1,276.2 203.1,274.1 182.3,274.1 182.3,268.5 203.1,268.5 203.1,266.4 161.4,266.4 161.4,276.2 	
		"/>
	<rect x="156.5" y="266.4" class="st17" width="22.7" height="9.8"/>
	<path class="st23" d="M203.1,274.1L203.1,274.1c-0.6-0.1-1-1.3-1-2.8s0.4-2.7,1-2.8l0,0h-44v5.5L203.1,274.1L203.1,274.1z"/>
	<path class="st23" d="M179.2,274.1h23.9l0,0c-0.6-0.1-1-1.3-1-2.8s0.4-2.7,1-2.8l0,0h-23.9V274.1z"/>
	<polygon class="st23" points="194.6,299 209.9,299 209.9,299 	"/>
	<path class="st23" d="M209.1,297.3c0-0.9,0.4-1.7,0.9-1.8l0,0h-19.1v3.5H210l0,0C209.4,299,209.1,298.2,209.1,297.3z"/>
	<path class="st4" d="M204.6,250L204.6,250h1.1v-2.1h-36.5v9.5h36.5v-2.1h-1.1l0,0c-0.4-0.1-0.6-1.2-0.6-2.7
		C203.9,251.2,204.2,250.1,204.6,250z"/>
	<rect x="169.1" y="247.9" class="st5" width="20.1" height="9.5"/>
	<path class="st23" d="M203.9,252.7c0-1.4,0.3-2.6,0.6-2.7l0,0h-14v5.4h14l0,0C204.2,255.3,203.9,254.1,203.9,252.7z"/>
</g>
<g>
	<g>
		<g>
			<path class="st2" d="M587.1,153.8h-26.3l-14.1,11.5l6.3-11.5h-6.5c-1.1,0-2-0.9-2-2v-26.1c0-1.1,0.9-2,2-2H587c1.1,0,2,0.9,2,2
				v26.1C589.1,152.9,588.2,153.8,587.1,153.8z"/>
		</g>
	</g>
	<g>
		<path class="st3" d="M572.9,134.8c0,3.5-4.4,4.5-4.4,5.9v0.5h-4.4v-1.3c0-1.9,3.3-2.9,3.3-5c0-0.9-0.6-1.8-1.7-1.8
			c-1.4,0-1.7,1.1-1.7,2.1c0,0.2,0,0.5,0,0.7h-4.7c0-0.3-0.1-0.6-0.1-1c0-3.3,3-5.4,7-5.4C570.3,129.6,572.9,131.6,572.9,134.8z
			 M568.9,147.5h-5.1v-4.7h5.1V147.5z"/>
	</g>
</g>
<g>
	<g>
		<g>
			<path class="st2" d="M107.2,160.4h-4.8l4.2,8.9l-9-8.9H81.8c-0.7,0-1.3-0.6-1.3-1.3v-16.4c0-0.7,0.6-1.3,1.3-1.3h25.5
				c0.7,0,1.3,0.6,1.3,1.3v16.4C108.5,159.9,107.9,160.4,107.2,160.4z"/>
		</g>
	</g>
	<g>
		<path class="st3" d="M98.3,148.5c0,2.2-2.8,2.8-2.8,3.7v0.3h-2.8v-0.8c0-1.2,2.1-1.9,2.1-3.1c0-0.6-0.4-1.1-1.1-1.1
			c-0.9,0-1.1,0.7-1.1,1.4c0,0.1,0,0.3,0,0.4h-3c0-0.2-0.1-0.4-0.1-0.6c0-2.1,1.9-3.4,4.4-3.4C96.7,145.2,98.3,146.5,98.3,148.5z
			 M95.8,156.5h-3.2v-3h3.2V156.5z"/>
	</g>
</g>
<g>
	<g>
		<g>
			<path class="st2" d="M356.7,156.3h-20.1l-10.8,8.8l4.8-8.8h-4.9c-0.9,0-1.5-0.7-1.5-1.6v-19.9c0-0.9,0.7-1.6,1.5-1.6h30.9
				c0.9,0,1.5,0.7,1.5,1.6v19.9C358.3,155.6,357.6,156.3,356.7,156.3z"/>
		</g>
	</g>
	<g>
		<path d="M337,150.1h-3.8v-3.5h3.8V150.1z"/>
		<path d="M343,150.1h-3.8v-3.5h3.8V150.1z"/>
		<path d="M348.9,150.1h-3.8v-3.5h3.8V150.1z"/>
	</g>
</g>
<g>
	<g>
		<g>
			<path class="st2" d="M964.4,159.4H948l-8.8,7.1l3.9-7.1h-4c-0.7,0-1.3-0.6-1.3-1.3v-16.2c0-0.7,0.6-1.3,1.3-1.3h25.2
				c0.7,0,1.3,0.6,1.3,1.3v16.2C965.6,158.8,965.1,159.4,964.4,159.4z"/>
		</g>
	</g>
	<g>
		<path d="M950.4,155.9v-2.5h2.5v2.5H950.4z M951.2,152.6l-0.8-8.9h2.7l-1,8.9H951.2z"/>
	</g>
</g>
<g>
	<path class="st2" d="M310.9,69.7v15.1h8.2v4.3h-13.3V69.7H310.9L310.9,69.7z"/>
	<path class="st2" d="M336.7,69.7v4h-10.2v3.6h9.2v4h-9.2V85H337v4h-15.6V69.7H336.7z"/>
	<path class="st2" d="M353,85.7h-8.4l-1.4,3.4H338l8.3-19.4h5.2l8.1,19.4h-5.4L353,85.7z M351.5,81.8l-2.7-6.9l-2.7,6.9H351.5z"/>
	<path class="st2" d="M373.1,89.1l-2.8-5.4h-0.1h-3.6v5.4h-5.1V69.7h8.7c5.1,0,8.1,2.5,8.1,6.8c0,2.9-1.2,5.1-3.5,6.3l4,6.3
		L373.1,89.1L373.1,89.1z M366.6,79.7h3.7c2,0,3.2-1.1,3.2-3s-1.2-2.9-3.2-2.9h-3.7V79.7z"/>
	<path class="st2" d="M386,69.7l8.8,11.7V69.7h4.7v19.4h-4.4l-8.8-11.6v11.6h-4.7V69.7H386z"/>
	<path class="st2" d="M408.4,69.7v19.4h-5.1V69.7H408.4z"/>
	<path class="st2" d="M416.6,69.7l8.8,11.7V69.7h4.7v19.4h-4.4l-8.8-11.6v11.6h-4.7V69.7H416.6z"/>
	<path class="st2" d="M446.7,79.2h4.4v7.6c-2.1,1.4-5.4,2.5-8.1,2.5c-5.9,0-10.4-4.3-10.4-9.9s4.6-9.8,10.7-9.8c2.9,0,6,1.1,8,2.9
		l-2.9,3.5c-1.4-1.3-3.4-2.1-5.1-2.1c-3.1,0-5.5,2.4-5.5,5.6s2.4,5.6,5.5,5.6c1,0,2.2-0.3,3.4-0.9V79.2z"/>
</g>
<g>
	<path class="st2" d="M752,81.6h4.4v7.6c-2.1,1.4-5.4,2.5-8.1,2.5c-5.9,0-10.4-4.3-10.4-9.9s4.6-9.8,10.7-9.8c2.9,0,6,1.1,8,2.9
		l-2.9,3.5c-1.4-1.3-3.3-2.1-5.1-2.1c-3.1,0-5.5,2.4-5.5,5.6s2.4,5.6,5.5,5.6c1,0,2.2-0.3,3.3-0.9L752,81.6L752,81.6z"/>
	<path class="st2" d="M779.5,81.8c0,5.7-4.5,9.9-10.5,9.9s-10.5-4.3-10.5-9.9c0-5.7,4.5-9.8,10.5-9.8
		C775,71.9,779.5,76.1,779.5,81.8z M763.7,81.8c0,3.2,2.5,5.6,5.3,5.6c2.9,0,5.2-2.4,5.2-5.6s-2.3-5.5-5.2-5.5
		S763.7,78.6,763.7,81.8z"/>
	<path class="st2" d="M794.4,88H786l-1.4,3.4h-5.2l8.3-19.4h5.2l8.1,19.4h-5.4L794.4,88z M792.9,84.2l-2.7-6.9l-2.7,6.9H792.9z"/>
	<path class="st2" d="M807.9,72.1v15.1h8.2v4.3h-13.3V72.1H807.9L807.9,72.1z"/>
</g>
<g>
	<path class="st2" d="M399.6,368.6v5.4h-7.5v19.7h-6.6V374H378v-5.4H399.6z"/>
	<path class="st2" d="M422.1,368.6v5.2h-13.3v4.7h12v5.2h-12v4.7h13.6v5.2h-20.2v-25.1L422.1,368.6L422.1,368.6z"/>
	<path class="st2" d="M443.3,389.3h-10.9l-1.8,4.5h-6.7l10.8-25.1h6.7l10.5,25.1h-7L443.3,389.3z M441.3,384.3l-3.4-9l-3.5,9H441.3z
		"/>
	<path class="st2" d="M465.5,374c-3.9,0-6.8,3-6.8,7.1c0,4,2.9,7.1,6.8,7.1c2.1,0,4.5-1.1,6.2-2.9l3.8,4.1
		c-2.7,2.8-6.7,4.7-10.4,4.7c-7.6,0-13.2-5.5-13.2-12.9c0-7.2,5.8-12.7,13.5-12.7c3.7,0,7.6,1.6,10.1,4.3l-3.8,4.5
		C470.1,375.3,467.7,374,465.5,374z"/>
	<path class="st2" d="M484.9,368.6v10.3H495v-10.3h6.6v25.1H495v-9.6h-10.1v9.6h-6.6v-25.1H484.9z"/>
	<path class="st2" d="M513.1,368.6v25.1h-6.6v-25.1H513.1z"/>
	<path class="st2" d="M523.7,368.6l11.4,15.1v-15.1h6.1v25.1h-5.7l-11.4-15.1v15.1H518v-25.1H523.7z"/>
	<path class="st2" d="M562.8,380.9h5.7v9.9c-2.7,1.9-7,3.2-10.5,3.2c-7.7,0-13.5-5.5-13.5-12.8s5.9-12.8,13.9-12.8
		c3.8,0,7.8,1.4,10.3,3.7l-3.7,4.6c-1.8-1.7-4.3-2.8-6.6-2.8c-4,0-7.1,3.1-7.1,7.2s3.1,7.2,7.2,7.2c1.3,0,2.8-0.4,4.3-1.2
		L562.8,380.9L562.8,380.9z"/>
</g>
<g>
	<path class="st2" d="M167.2,370.1c-0.9,0-1.6,0.3-1.6,1c0,2.5,7.9,1.1,7.9,6.5c0,3.1-2.7,4.6-6.1,4.6c-2.5,0-5.1-0.9-6.9-2.4
		l1.5-3.1c1.5,1.3,3.9,2.3,5.4,2.3c1.2,0,1.9-0.4,1.9-1.2c0-2.5-7.9-1-7.9-6.3c0-2.8,2.4-4.6,6-4.6c2.2,0,4.4,0.7,6,1.7l-1.5,3.1
		C170.4,370.8,168.4,370.1,167.2,370.1z"/>
	<path class="st2" d="M182.7,370.3c-2.3,0-4.1,1.8-4.1,4.2c0,2.4,1.8,4.3,4.1,4.3c1.2,0,2.7-0.7,3.7-1.8l2.3,2.5
		c-1.6,1.7-4,2.8-6.2,2.8c-4.5,0-7.9-3.3-7.9-7.7c0-4.3,3.4-7.6,8-7.6c2.2,0,4.6,1,6.1,2.6l-2.3,2.7
		C185.4,371.1,184,370.3,182.7,370.3z"/>
	<path class="st2" d="M194.3,367.1v6.1h6.1v-6.1h3.9v15h-3.9v-5.8h-6.1v5.8h-3.9v-15H194.3z"/>
	<path class="st2" d="M222.5,374.6c0,4.4-3.5,7.7-8.1,7.7c-4.7,0-8.1-3.3-8.1-7.7c0-4.4,3.5-7.6,8.1-7.6S222.5,370.2,222.5,374.6z
		 M210.3,374.6c0,2.5,1.9,4.3,4.1,4.3c2.2,0,4.1-1.9,4.1-4.3c0-2.5-1.8-4.3-4.1-4.3S210.3,372.2,210.3,374.6z"/>
	<path class="st2" d="M239.5,374.6c0,4.4-3.5,7.7-8.1,7.7c-4.7,0-8.1-3.3-8.1-7.7c0-4.4,3.5-7.6,8.1-7.6S239.5,370.2,239.5,374.6z
		 M227.2,374.6c0,2.5,1.9,4.3,4.1,4.3c2.2,0,4.1-1.9,4.1-4.3c0-2.5-1.8-4.3-4.1-4.3S227.2,372.2,227.2,374.6z"/>
	<path class="st2" d="M245.4,367.1v11.7h6.4v3.4h-10.3v-15h3.9L245.4,367.1L245.4,367.1z"/>
</g>
<g>
	<path class="st2" d="M706.4,393.8l-5-7.5l-2.5,2.8v4.7h-5.1v-19.4h5.1v8.1l7.3-8.1h5.9l-7.2,8l7.6,11.4H706.4L706.4,393.8z"/>
	<path class="st2" d="M719,374.4l8.8,11.7v-11.7h4.7v19.4h-4.4l-8.8-11.6v11.6h-4.7v-19.4H719z"/>
	<path class="st2" d="M756.1,384c0,5.7-4.5,9.9-10.5,9.9s-10.5-4.3-10.5-9.9s4.5-9.8,10.5-9.8S756.1,378.4,756.1,384z M740.3,384.1
		c0,3.2,2.5,5.6,5.3,5.6c2.9,0,5.2-2.4,5.2-5.6s-2.3-5.5-5.2-5.5C742.7,378.5,740.3,380.9,740.3,384.1z"/>
	<path class="st2" d="M761.8,374.4l3.7,14l3.7-14h5l3.7,14l3.7-14h5.2l-6.4,19.4H775l-3.5-13.1l-3.6,13.1h-5.2l-6.4-19.4H761.8z"/>
	<path class="st2" d="M793.4,374.4v15.1h8.2v4.3h-13.3v-19.4H793.4z"/>
	<path class="st2" d="M819.2,374.4v4H809v3.6h9.2v4H809v3.6h10.5v4h-15.6v-19.4L819.2,374.4L819.2,374.4z"/>
	<path class="st2" d="M841.3,384c0,5.8-4.2,9.7-10.5,9.7h-8.2v-19.4h8.4C837.1,374.4,841.3,378.3,841.3,384z M836.1,384.1
		c0-3.4-2.2-5.6-5.3-5.6h-3.2v11.2h3.4C834,389.6,836.1,387.4,836.1,384.1z"/>
	<path class="st2" d="M856.3,383.8h4.4v7.6c-2.1,1.4-5.4,2.5-8.1,2.5c-5.9,0-10.4-4.3-10.4-9.9s4.6-9.9,10.7-9.9c2.9,0,6,1.1,8,2.9
		l-2.9,3.5c-1.4-1.3-3.3-2.1-5.1-2.1c-3.1,0-5.5,2.4-5.5,5.6s2.4,5.6,5.5,5.6c1,0,2.2-0.3,3.3-0.9L856.3,383.8L856.3,383.8z"/>
	<path class="st2" d="M879.3,374.4v4h-10.2v3.6h9.2v4h-9.2v3.6h10.5v4H864v-19.4L879.3,374.4L879.3,374.4z"/>
</g>
<polygon class="st26" points="515.7,133.8 511.3,133.8 511.3,129.3 508.8,129.3 508.8,133.8 504.3,133.8 504.3,136.3 508.8,136.3 
	508.8,140.7 511.3,140.7 511.3,136.3 515.7,136.3 "/>
<polygon class="st26" points="86.2,210.6 81.7,210.6 81.7,206.1 79.2,206.1 79.2,210.6 74.8,210.6 74.8,213.1 79.2,213.1 
	79.2,217.5 81.7,217.5 81.7,213.1 86.2,213.1 "/>
<polygon class="st26" points="104,263 99.6,263 99.6,258.6 97.1,258.6 97.1,263 92.6,263 92.6,265.5 97.1,265.5 97.1,270 99.6,270 
	99.6,265.5 104,265.5 "/>
<polygon class="st26" points="307.3,150 302.8,150 302.8,145.6 300.3,145.6 300.3,150 295.9,150 295.9,152.5 300.3,152.5 
	300.3,156.9 302.8,156.9 302.8,152.5 307.3,152.5 "/>
<polygon class="st26" points="164.1,122.2 159.7,122.2 159.7,117.8 157.2,117.8 157.2,122.2 152.8,122.2 152.8,124.7 157.2,124.7 
	157.2,129.2 159.7,129.2 159.7,124.7 164.1,124.7 "/>
<polygon class="st26" points="707.6,116.6 703.1,116.6 703.1,112.1 700.6,112.1 700.6,116.6 696.2,116.6 696.2,119.1 700.6,119.1 
	700.6,123.5 703.1,123.5 703.1,119.1 707.6,119.1 "/>
<polygon class="st26" points="912.8,146.1 908.3,146.1 908.3,141.7 905.8,141.7 905.8,146.1 901.4,146.1 901.4,148.6 905.8,148.6 
	905.8,153.1 908.3,153.1 908.3,148.6 912.8,148.6 "/>
<polygon class="st26" points="961.8,218.7 957.3,218.7 957.3,214.3 954.8,214.3 954.8,218.7 950.4,218.7 950.4,221.2 954.8,221.2 
	954.8,225.6 957.3,225.6 957.3,221.2 961.8,221.2 "/>
<polygon class="st26" points="949.3,287 944.9,287 944.9,282.5 942.4,282.5 942.4,287 937.9,287 937.9,289.5 942.4,289.5 
	942.4,293.9 944.9,293.9 944.9,289.5 949.3,289.5 "/>
<circle class="st2" cx="540.3" cy="81.2" r="15.9"/>
<path class="st2" d="M134.2,90.2c-5.5,0-11-0.1-16.4,0.1c-3.8,0.2-7.4,0-11.2-0.4c-1.3-0.1-2.5-0.3-3.7-0.8
	c-1.1-0.4-2.6-0.9-0.9-1.5c3.7-1.3,8,1.3,11.5-0.3c-0.4-0.6-1.7-1.6-1.1-2.4c0.4-0.6,2.6-0.8,3.2-0.9c2.5-0.2,5.6-0.2,7.8,0.7
	c2.7,1.1,5.5,0.9,8.4,0.9c1.3,0,6.9-0.6,7.6,1.1c0.4,1-1.1,0.6,0.2,1.5c0.9,0.7,2.5,0.5,3.5,0.5c0.7,0,2.5-0.2,3,0.5
	c0.7,0.9-0.4,1.4-1.1,1.5C143.2,91.1,135.8,90.2,134.2,90.2z"/>
<path class="st2" d="M940,71.7c-5.5,0-11-0.1-16.4,0.1c-3.8,0.2-7.5,0-11.2-0.4c-1.3-0.1-2.5-0.3-3.7-0.8c-1.1-0.4-2.5-0.9-0.9-1.5
	c3.7-1.3,8,1.3,11.5-0.3c-0.4-0.6-1.7-1.6-1.1-2.4c0.4-0.6,2.6-0.8,3.2-0.9c2.5-0.2,5.6-0.2,7.8,0.7c2.7,1.1,5.5,0.9,8.4,0.9
	c1.3,0,6.9-0.6,7.6,1.1c0.4,1-1.1,0.6,0.2,1.5c0.9,0.7,2.5,0.5,3.5,0.5c0.7,0,2.5-0.2,3,0.5c0.7,0.9-0.4,1.4-1.1,1.5
	C949,72.6,941.6,71.7,940,71.7z"/>
<path class="st2" d="M676.2,68.2c-5.5,0-11-0.1-16.4,0.1c-3.8,0.2-7.5,0-11.2-0.4c-1.3-0.1-2.5-0.3-3.7-0.8
	c-1.1-0.4-2.5-0.9-0.9-1.5c3.7-1.3,8,1.3,11.5-0.3c-0.4-0.6-1.7-1.6-1.1-2.4c0.4-0.6,2.6-0.8,3.2-0.9c2.5-0.2,5.6-0.2,7.8,0.7
	c2.7,1.1,5.5,0.9,8.4,0.9c1.3,0,6.9-0.6,7.6,1.1c0.4,1-1.1,0.6,0.2,1.5c0.9,0.7,2.5,0.5,3.5,0.5c0.7,0,2.5-0.2,3,0.5
	c0.7,0.9-0.4,1.4-1.1,1.5C685.2,69.1,677.8,68.2,676.2,68.2z"/>
<path class="st2" d="M156.6,71.4c2.7,0.1,5.4,0.4,8.2,0.2c1.2-0.1,2.3,0,3.5,0.1c2.6,0.4,4.9,0,7.4-0.2c1.5-0.1,3.3,0.1,4.7-0.6
	c2.8-1.4-1.2-2.1-2.4-1.9c-2.2,0.2-4.1,0.1-6-0.9c-1-0.5-2-0.5-3.1-0.6c-0.9-0.1-2.4-0.5-3.2-0.1c-0.4,0.2-0.5,0.6-1,0.8
	c-0.7,0.3-1.5,0.2-2.2,0.3c-1.3,0.1-2.5-0.3-3.7-0.5c-0.9-0.1-7.2-1-7.6,0c-0.2,0.8,2.3,0.7,2.1,1.4c-0.1,0.5-2.9,0.5-3.4,0.6
	c-0.7,0.1-3.5,0-3.5,1c2,0.6,3.9,0.7,6,0.7c0.1,0,0.2,0,0.3,0l0,0C154.1,71.4,155.3,71.3,156.6,71.4z"/>
<path class="st2" d="M871.9,93.4c2.7,0.1,5.5,0.4,8.2,0.2c1.2-0.1,2.3,0,3.5,0.1c2.6,0.4,4.9,0,7.4-0.2c1.5-0.1,3.3,0.1,4.7-0.6
	c2.8-1.4-1.2-2.1-2.4-1.9c-2.2,0.2-4.1,0.1-6-0.9c-1-0.5-2-0.5-3.1-0.6c-0.9-0.1-2.4-0.5-3.2-0.1c-0.4,0.2-0.5,0.6-1,0.8
	c-0.7,0.3-1.5,0.2-2.2,0.3c-1.3,0.1-2.5-0.3-3.7-0.5c-0.9-0.1-7.2-1-7.6,0c-0.2,0.8,2.3,0.7,2.1,1.4c-0.1,0.5-2.9,0.5-3.3,0.6
	c-0.7,0.1-3.5,0-3.5,1c2,0.6,3.9,0.7,6,0.7c0.1,0,0.2,0,0.3,0l0,0C869.4,93.4,870.7,93.3,871.9,93.4z"/>
<g>
	<path class="st27" d="M915,290.9c-2.1-0.9-3.7-1.7-3.3-5.1c0.2-1.6,0.8-2.8,1.9-3.7c0.9-0.8,1.4-1.1,1.7-2.4c0.4-2-0.1-3.6,0.8-5.5
		c1-2,3.2-1.8,4.2-3.6c0.9-1.6,1.3-3.3,3.3-3.9c1.8-0.5,2.8,1,2.2,2.5c-0.3,0.9-1.1,1.7-1.3,2.6s0.2,1.6,0.7,2.4
		c1.1,1.8,1.6,4-0.5,5.9c-1.2,1.1-2.2,2.1-1.6,3.9c0.7,2.1,1.1,3.4-0.8,5.2c-1.4,1.4-2.7,1.3-4.3,1.4c-1.4,0.1-3.3,0.7-4.5-0.2
		L915,290.9z"/>
	<path class="st4" d="M910.4,290.9c-1.5,1.6-2.8,2.9-5.1,1c-1.2-1-1.7-2.2-1.6-3.9c0-1.3,0.1-2-0.7-3c-1.3-1.6-3.2-2.2-4-4.3
		c-0.9-2.2,1.1-3.7,0.4-5.7c-0.6-1.8-1.8-3.4-0.7-4.9c0.9-1.2,2.9-0.5,3.6,0.9c0.4,0.8,0.5,1.7,1,2.5s1.2,1,2,1.2
		c1.7,0.6,3.2,1.6,3.3,3.8c0.1,1.3,0.2,2.4,1.5,3s2.1,1,2.3,3c0.2,1.5-0.3,2.4-0.8,3.7c-0.5,1.2-0.9,3-2,3.7L910.4,290.9z"/>
	<g>
		<path class="st2" d="M916.5,288.7c-0.1,0-0.1,0-0.2,0c-0.1,0-0.2-0.1-0.1-0.2s0.1-0.2,0.2-0.1c1.1,0.1,2.2-0.9,2.8-1.7
			c0.5-0.7,0.4-1.3,0.4-2.1V284c-0.1-1.7-0.2-3.1,1.1-4.5c1.5-1.5,1.8-2.4,1.7-4.4c0-0.2,0-0.3,0-0.5c0-0.7-0.1-1.4,0-2
			c0.1-0.4,0.2-0.7,0.4-1c0.2-0.4,0.4-0.8,0.4-1.2c0-0.1,0.1-0.2,0.2-0.2l0,0c0.1,0,0.2,0.1,0.2,0.2c0,0.5-0.2,0.9-0.4,1.4
			c-0.2,0.3-0.3,0.6-0.4,0.9c-0.1,0.6-0.1,1.3,0,1.9c0,0.2,0,0.4,0,0.5c0.1,2.1-0.3,3.1-1.8,4.6c-1.2,1.2-1.1,2.5-1,4.2v0.6
			c0.1,0.8,0.1,1.5-0.5,2.3C918.8,287.8,917.7,288.7,916.5,288.7z"/>
	</g>
	<g>
		<path class="st2" d="M920.2,284.2c-0.2,0-0.4-0.1-0.7-0.4c-0.1-0.1,0-0.2,0-0.2h0.2c0.2,0.2,0.3,0.3,0.5,0.2
			c0.7-0.2,1.4-1.6,1.5-2.2c0.3-1.6,0.8-2.4,2.3-3c0.1,0,0.2,0,0.2,0.1s0,0.2-0.1,0.2c-1.5,0.6-1.8,1.3-2.1,2.8
			c-0.1,0.5-0.9,2.2-1.8,2.4C920.4,284.2,920.3,284.2,920.2,284.2z"/>
	</g>
	<g>
		<path class="st2" d="M910.5,290c-0.3,0-0.6-0.1-0.8-0.2c-1.1-0.6-1.6-2.3-2.1-3.9c-0.2-0.8-0.4-1.5-0.7-2
			c-0.7-1.3-1.5-2.1-2.8-3.1c-1.6-1.2-2-2-2.2-3.9c-0.2-1.5-0.5-3.1-1.2-4c0-0.1,0-0.2,0-0.2c0.1,0,0.2,0,0.2,0
			c0.7,1,1.1,2.6,1.3,4.2c0.3,1.8,0.6,2.6,2.1,3.7c1.2,0.8,2.1,1.7,2.9,3.2c0.3,0.5,0.5,1.2,0.7,2c0.4,1.5,0.9,3.1,2,3.7
			c0.4,0.2,0.8,0.2,1.3,0.1c0.1,0,0.2,0,0.2,0.1s0,0.2-0.1,0.2C911,290,910.7,290,910.5,290z"/>
	</g>
	<g>
		<path class="st2" d="M905.5,282.1L905.5,282.1c-0.2-0.1-0.2-0.2-0.1-0.3c0.5-0.6,0.2-1.6-0.1-2.6c-0.3-0.9-0.5-1.8-0.3-2.6
			c0-0.1,0.1-0.1,0.2-0.1c0.1,0,0.1,0.1,0.1,0.2c-0.2,0.7,0.1,1.5,0.3,2.4c0.3,1.1,0.6,2.2,0.1,2.9
			C905.6,282.1,905.6,282.1,905.5,282.1z"/>
	</g>
	<g>
		<path class="st2" d="M907.2,284.3C907.1,284.3,907.1,284.3,907.2,284.3c-0.3-0.1-0.5-0.2-0.6-0.3c-0.3-0.2-0.5-0.3-0.9-0.3
			c-0.2,0-0.4,0-0.6,0c-0.4,0-0.8,0.1-1.3-0.2c-0.7-0.4-1.4-1-2.2-1.9c-0.1-0.1-0.2-0.3-0.4-0.5c-0.2-0.3-0.6-0.9-0.7-0.9
			c-0.1,0-0.1-0.1-0.1-0.2s0.1-0.1,0.2-0.1c0.2,0,0.5,0.4,0.9,1c0.1,0.2,0.3,0.4,0.4,0.5c0.5,0.6,1.3,1.4,2.1,1.8
			c0.4,0.2,0.8,0.2,1.1,0.1c0.2,0,0.4,0,0.6,0c0.5,0,0.8,0.2,1,0.4c0.2,0.1,0.3,0.2,0.5,0.3c0.1,0,0.1,0.1,0.1,0.2
			C907.3,284.2,907.2,284.3,907.2,284.3z"/>
	</g>
	<path class="st28" d="M909.8,291.2c-2.3-1.9-5-3.2-4.4-6.9c0.5-3,4-3.8,2.9-7.1c-0.7-2.1-2.5-4.5-1.9-6.9c0.7-2.5,3.9-1.5,4.6-3.8
		c0.6-2-1.5-4.2,0.4-5.9c1.6-1.4,4.5-0.1,5.4,1.6c1.1,2.1-0.7,3.6-0.4,5.7c0.2,1.3,1.5,1.5,2.4,2.3c0.9,0.7,1.8,1.9,2.2,3
		c1.2,3.4-2.2,4.6-3.2,7.2c-1,2.5,2.3,3.2,2.6,5.7c0.3,2.7-2.7,4.9-5,5.3C913.7,291.6,911.2,292.5,909.8,291.2z"/>
	<g>
		<path class="st2" d="M912.4,292L912.4,292c-0.1,0-0.2-0.1-0.2-0.2s1.8-6.3,0.3-13c-1-4.2-0.1-7.2,0.6-9.5c0.4-1.4,0.8-2.6,0.6-3.7
			c0-0.1,0-0.2,0.1-0.2s0.2,0,0.2,0.1c0.2,1.2-0.2,2.4-0.6,3.9c-0.7,2.3-1.6,5.2-0.6,9.4C914.4,285.6,912.5,291.9,912.4,292
			C912.5,292,912.5,292,912.4,292z"/>
	</g>
	<g>
		<path class="st2" d="M912.8,278.8c-0.1,0-0.2-0.1-0.2-0.1c0-0.1,0-0.2,0.1-0.2c1.3-0.2,2.9-1.4,3-2.9c0-0.2,0-0.4,0-0.6
			c0.1-1,0.1-2.2,0.8-2.8c0.3-0.3,0.8-0.4,1.4-0.3c0.1,0,0.2,0.1,0.1,0.2s-0.1,0.1-0.2,0.1c-0.5-0.1-0.9,0-1.2,0.2
			c-0.6,0.5-0.7,1.6-0.7,2.6c0,0.2,0,0.4,0,0.6C916,277.3,914.3,278.6,912.8,278.8L912.8,278.8z"/>
	</g>
	<g>
		<path class="st2" d="M911.8,278.8c-0.7,0-1.2-0.2-1.6-0.6c-0.7-0.6-1-1.6-1-2.9c0-0.1,0-0.3,0-0.4c0-0.9,0.1-2.3-0.5-3
			c-0.2-0.2-0.4-0.3-0.8-0.3c-0.1,0-0.2-0.1-0.2-0.2s0.1-0.2,0.2-0.2l0,0c0.4,0,0.7,0.2,1,0.4c0.7,0.7,0.6,2.2,0.5,3.2
			c0,0.2,0,0.3,0,0.4c0,1.2,0.3,2.1,0.8,2.6c0.5,0.4,1.2,0.6,2.1,0.4c0.1,0,0.2,0,0.2,0.1s0,0.2-0.1,0.2
			C912.3,278.8,912.1,278.8,911.8,278.8z"/>
	</g>
	<g>
		<path class="st2" d="M913.7,289.4c-0.2,0-0.4,0-0.6-0.1c-0.1,0-0.1-0.1-0.1-0.2s0.1-0.1,0.2-0.1c1,0.4,2.5-0.7,3-1.4
			c0.2-0.3,0.4-0.8,0.5-1.3c0.3-0.9,0.6-1.8,1.4-2c0.1,0,0.2,0,0.2,0.1s0,0.2-0.1,0.2c-0.7,0.2-0.9,1-1.2,1.8
			c-0.2,0.5-0.3,1-0.6,1.4C916,288.4,914.8,289.4,913.7,289.4z"/>
	</g>
	<g>
		<path class="st2" d="M912.3,289.3c-0.2,0-0.4,0-0.6-0.1c-1.2-0.4-2.2-1.9-2.5-2.8c-0.2-0.5-0.2-1.1-0.2-1.9c0-1.1-0.1-2.3-0.8-2.7
			c-0.1,0-0.1-0.1-0.1-0.2s0.1-0.1,0.2-0.1c0.9,0.5,1,1.8,1,2.9c0,0.7,0,1.3,0.2,1.7c0.3,0.8,1.3,2.2,2.4,2.6
			c0.4,0.1,0.8,0.1,1.2-0.1c0.1,0,0.2,0,0.2,0.1s0,0.2-0.1,0.2C912.9,289.2,912.6,289.3,912.3,289.3z"/>
	</g>
	<g>
		<path class="st13" d="M902,290.3c-1.2,3.1-1.8,6.7-1.8,10.6c0,11.2,5.6,20.4,12.5,20.4s12.5-9.1,12.5-20.4c0-3.9-0.7-7.5-1.8-10.6
			H902L902,290.3z"/>
		<path class="st4" d="M924.6,295.1c-0.3-1.7-0.8-3.3-1.3-4.8H902c-0.6,1.5-1,3.1-1.3,4.8H924.6z"/>
	</g>
</g>
<polygon class="st29" points="30,-99.1 39,-99.1 39,-99.1 "/>
<text transform="matrix(0.8688 0 0 1 408.4218 54.003)" class="st2 st30 st31">Whizzkid Academy</text>
</svg>
